<svg xmlns="http://www.w3.org/2000/svg" xmlns:xlink="http://www.w3.org/1999/xlink" viewBox="0 0 2899.61 1221.06"><defs><style>.a{fill:url(#a);}.b{fill:#fff;}</style><linearGradient id="a" x1="-47.89" y1="540.04" x2="1409.16" y2="540.04" gradientUnits="userSpaceOnUse"><stop offset="0" stop-color="#0095da"/><stop offset="0.16" stop-color="#0396d6"/><stop offset="0.29" stop-color="#0e9acc"/><stop offset="0.43" stop-color="#20a0ba"/><stop offset="0.55" stop-color="#39a9a0"/><stop offset="0.68" stop-color="#59b47f"/><stop offset="0.8" stop-color="#80c157"/><stop offset="0.87" stop-color="#9ccb3b"/></linearGradient></defs><title>logo_cloud-ready_dark-bg</title><path class="a" d="M705.48,1080.08v-18.73h27.85v18.73Zm9.89-26.15v-26.13h18v26.13Zm24.87-7.4v-18.73h14.94v18.73Zm-57-4.41V980.34H707v61.78Zm32.12-20.35V980.34h56.1v41.43ZM655,994.66V980.34h20.48v14.32Zm1.15-22.5V893.9h131.6v78.26Zm139.4-25V855h32.74v92.14Zm-162.94,0V930.69h16.49v16.49Zm-4.21-22.5V893.9h20.92v30.78Zm-16.26,0V893.9h8.78v30.78ZM766,888.37V855h21.75v33.32Zm-59.91,0V855h53.74v33.32Zm-109.19-.71v-79.3H700.49v79.3ZM835.41,883V823.77H872.8V883ZM572.92,870.14V852.55h17.58v17.58ZM817.85,848.4V823.77h10.42V848.4Zm-111.78,0V761.31H811.34V848.4Zm-123.25-1.57V837h7.69v9.83Zm-18.62,0V837H578v9.83ZM880.9,844V823.77h20.23V844ZM557.57,831.33V807.93h32.89v23.41ZM900.46,818V798.7h22.6V818Zm-82.61,0V761.31h76.3V818Zm-240-15.24V749.66h62.83v53.05Zm-40.47-.05V790H572v12.66Zm109.23-.08V727.06h53.83v75.52Zm253.8-10.24v-31h38.87v31Zm-377-8.39V749.66H572v34.29Zm421.08-10.45V761.31h8.65v12.19Zm-9.34-18V727.06h35.92v28.47ZM747.81,733.12v22.41H706.07V733.12m130.19,22.32V663.91h92.48v91.53Zm-82.32,0v-51h76.53v51ZM583.39,744.51v-43.7h57.33v43.7Zm-47.87,0v-43.7H578v43.7ZM500,744.15V731.69h29.52v12.47Zm-11.42-18.22v-19h40.94v19Zm248.16,0V710.52h11.12V725.9Zm198.56-4.13V663.91h57.86v57.86Zm63.86-20.11V686.24h9.94v15.42ZM469.58,701V641.15h59.9V701Zm329.81-3.14V655.42h31.08v42.49Zm-33.41,0V683.47h28v14.44Zm-230.46-3V670.43h57V695ZM999.12,679.9v-16h22.5v16Zm-101.3-22.33V559.29h132.73v98.28Zm-61.56,0V617.22h55.17v40.35ZM453.7,656.08V641.53h10.4v14.55ZM437,650.35v-8.82h11.23v8.82Zm600.8-5.59v-9.94h9.94v9.94ZM480.57,635V619.27h15.78V635Zm-45.74,0V605.52h39.73V635Zm-7.59-5.64V619.36h1.95v10.05Zm610.45-.34V617.22H1056v11.84Zm23.81-7.6v-4.24h4.25v4.24Zm-641-7.26v-8.69h8.69v8.69Zm-17.64-30.94v-3.48h3.48v3.48Zm.14-5.85v-3.48h7.93v3.48ZM862.14,610.9V595.06h29.29V610.9Zm12.1-20.32V569.4h17.19v21.18Zm163.44,20v-109H1073v109ZM434.83,600.37v-8.69h19.4v8.69Zm-26.37,0V579.64h20.73v20.73Zm672.45-11.43V566.55h11.75v22.39Zm0-29.79V546.46h26.85v12.69Zm-129.42-6.28v-37h79.06v37Zm128.91-13.81V513.44h45.52v25.62Zm-83.5-29.64V477.3h33.65v32.11Zm83.5-3.38V415.73h66.32V506Zm-42.71-11.51V437.9H1073v56.62Zm115-17.72V438.92h16.44V476.8Zm22.49-25.5V438.92h16V451.3Zm-22.49-20.78V397.58h46.75v32.94Zm51.93-18.15V397.58h12.82v14.79Zm-105.21-2.42V374.79h47.45v35.16Zm53.27-18.15V340.48h82.9V391.8Zm87.79-20.37V352.36h12.82v19.07ZM1127.78,369V349.94h19.07V369ZM1241,346.59v-6.11h25.92v6.11Zm-32.7-11.85V310.67h16.24v24.07Zm21.28,0V259.61H1277V334.7Zm-54.39,0v-24h28.06v24Zm106.74-15.05V287.83h8.69v31.82Zm-86.1-14.27v-16.5h28.7v16.5Zm99.54-6.55v-11h9.48v11ZM1281.91,283V227.58h33.47V283Zm38-22.71v-10h8.81v10Zm-46.64-5.36v-3.74H1277v3.74Zm-22.18,0v-3.74h17.53v3.74Zm-13,0V247H1246v7.91Zm13-8.46V233.68h26.24v12.75Zm68.81-1.38V227.58h25.72V245Zm30.43-10.41v-7.05h4v7.05ZM1268.53,229V219h8.81v10Zm40.73-5.74V184.29h48.1v38.93Zm-27.35,0V208.45h22.93v14.77Zm80-1.78v-3.7h2.42v3.7Zm0-9.29v-3.7h8.2v3.7Zm0-9.29V179.94h15.72v22.91Zm20.29-17.49V180.2h8.75v5.17Zm-50.11-6.05V159.85h25.28v19.46Zm29.82-4.57V141.62H1395v33.12Zm37.88-7V155.17h7.52V167.7ZM1342.83,155V140.45h14.53V155Zm56.93-4.11v-23h15.72v23Zm20.37-13.19v-9.83H1430v9.83Zm-48.69-.58v-9.25H1395v9.25Zm11.1-13.77v-9.25h49.22v9.25Zm28.26-13.77V87.27h27v22.29Zm-14.26,0v-8.93h8.93v8.93Zm45.81-9.94V83.76h10.22V99.62Zm14.56-13.53V83.76h2.33v2.33Zm-34.38-3.33V75.38h15.26v7.37Zm19.83-3.14V56.79h25.76V79.61Zm-10.11-8.74v-5h5.54v5Zm39.94-3.81V56.79h6V67.06Zm-6.24-14.8V35.42h23.23V52.26Zm-13,0v-6h8.72v6Zm40.63-10.09V35.42h1.73v6.74Zm5.73-5.47V35.42h1.45V36.7Zm3.87-5.22V25.82h1.49v5.66Zm-19.85,0V20.29h15.51V31.48Zm-10,0V27.26h5.83v4.21Zm29.86-10V16.26h7.66v5.19Zm11.71-4.59v-.59h.75v.59Zm-24.27-.64V12h8.22v4.22Zm12.56-4.32V0H1519V11.89Z"/><path class="b" d="M929.5,161.35A417.68,417.68,0,0,1,1182.06,246L1144.3,284.4a363.85,363.85,0,0,0-214.8-69.72c-153,0-284.08,94-338.66,227.45a177.65,177.65,0,0,0-122.67-48.81c-99.1,0-179.58,80.3-179.58,179.39a164.4,164.4,0,0,0,2.15,26.66C156,622.55,53.33,739.73,53.33,881.51c0,158,128,286.22,286,286.22h847.75v53.33H339.37A339.53,339.53,0,0,1,80.9,661.39,340.54,340.54,0,0,1,235.71,558.11a232.8,232.8,0,0,1,335-194.26A419.09,419.09,0,0,1,929.5,161.35"/><path class="b" d="M1246,688.86q12.15,36.19,35.13,62.86a162.6,162.6,0,0,0,56.53,42Q1371.16,809,1413.42,809a149,149,0,0,0,58.64-11.62,150.7,150.7,0,0,0,48.34-32.49,174.5,174.5,0,0,0,34.34-49.39,185.27,185.27,0,0,0,16.64-62.34h-23.24a147.39,147.39,0,0,1-12.41,51,149,149,0,0,1-28.79,43.32,141,141,0,0,1-42,30.11A119,119,0,0,1,1413.42,789q-37,0-66-14.26a148.18,148.18,0,0,1-49.13-38.3q-20.08-24-30.64-56.26a228.48,228.48,0,0,1,0-137.35q10.56-32.22,30.64-56.26a148.29,148.29,0,0,1,49.13-38.3q29-14.26,66-14.26a147.06,147.06,0,0,1,45.17,6.87,129.32,129.32,0,0,1,38.83,20.07,117.32,117.32,0,0,1,29.06,32,112.82,112.82,0,0,1,15.32,42.53H1565q0-1.05-2.11-10.83a141.71,141.71,0,0,0-7.66-23.24,156.74,156.74,0,0,0-16.11-28.79,128.65,128.65,0,0,0-27.21-28.26q-16.64-12.94-40.94-21.66t-57.58-8.72q-42.27,0-75.81,15.32a162.81,162.81,0,0,0-56.53,42q-23,26.68-35.13,62.86t-12.15,77.39Q1233.81,652.68,1246,688.86Zm365.56,111.2h237.2V780h-214V422.88h-23.24Zm569.16-266q-12.16-36.18-35.13-62.86a163.49,163.49,0,0,0-56.26-42Q2056,413.9,2013.75,413.9t-75.81,15.32a162.8,162.8,0,0,0-56.53,42q-23,26.68-35.13,62.86t-12.15,77.39q0,41.21,12.15,77.39t35.13,62.86a162.6,162.6,0,0,0,56.53,42Q1971.49,809,2013.75,809t75.54-15.32a163.29,163.29,0,0,0,56.26-42q23-26.67,35.13-62.86t12.15-77.39Q2192.84,570.26,2180.69,534.08Zm-312.74,8.72q10.56-32.22,30.64-56.26a148.29,148.29,0,0,1,49.13-38.3q29-14.26,66-14.26t65.77,14.26a149.22,149.22,0,0,1,48.87,38.3q20.07,24,30.64,56.26a228.48,228.48,0,0,1,0,137.35q-10.57,32.23-30.64,56.26a149.12,149.12,0,0,1-48.87,38.3Q2050.72,789,2013.75,789t-66-14.26a148.19,148.19,0,0,1-49.13-38.3q-20.08-24-30.64-56.26a228.48,228.48,0,0,1,0-137.35ZM2243.5,422.88V649q0,12.68,1.06,29.32a177.2,177.2,0,0,0,19.55,69.47,102.92,102.92,0,0,0,24.56,30.9q15.58,13.47,39.36,21.92t57.05,8.45q42.26,0,70.52-12.41t45.17-34.07q16.9-21.66,24-50.71a263.23,263.23,0,0,0,7.13-62.86V422.88h-23.24V649q0,32.23-6.34,58.11t-20.87,44.11q-14.54,18.22-38,28T2385.08,789q-27.47,0-46.75-7.13t-32.49-19A92.43,92.43,0,0,1,2285,735.88a161.21,161.21,0,0,1-17.17-61q-1.06-14.78-1.06-25.89V422.88Zm358.17,377.19h122.56q45.43,0,78.45-14.53t54.68-39.88q21.66-25.36,32-60t10.3-74.75a295.38,295.38,0,0,0-8.19-69.73A161.09,161.09,0,0,0,2863.16,481q-20.08-26.41-53.62-42.26t-84.26-15.85H2601.67ZM2624.91,780V443h96.67a292.15,292.15,0,0,1,30.9,1.85,161.1,161.1,0,0,1,34.34,7.66,140.73,140.73,0,0,1,33.28,16.64q16.11,10.83,28.53,29.58t20.07,46.22q7.65,27.47,7.66,66,0,49.13-13.47,81.62t-35.13,51.77a129,129,0,0,1-48.34,27.47,180,180,0,0,1-53.09,8.19ZM1245.57,1221.06h63.91V1070.75h94.07q22,0,36,5.62a47.68,47.68,0,0,1,22.24,17.64q8.17,12,11.25,30.17t3.07,43.2q0,13.3,1.28,27.61a59.48,59.48,0,0,0,8.44,26.07h68.51q-10.23-11.24-15.08-37.58a323.39,323.39,0,0,1-4.86-58.54q0-21.47-5.37-35.79t-13.55-23.26a52.25,52.25,0,0,0-17.64-13,65.61,65.61,0,0,0-17.64-5.11v-1q4.6-1.54,14.57-6.14t20.2-15.08q10.22-10.47,17.89-27.61t7.67-43.2q0-46.52-30.17-72.6T1419.92,856H1245.57Zm63.91-312.9h103.79a136.08,136.08,0,0,1,23.77,2,51.73,51.73,0,0,1,20.45,8.18,41.41,41.41,0,0,1,14.06,17.13q5.1,11,5.11,28.38,0,29.14-15.85,43.71t-46.53,14.57H1309.48Zm289.32,312.9h266.37v-55.22H1662.71V1059h184.06v-52.15H1662.71V911.23H1861.6V856H1598.8Zm284.51,0h66l34.25-96.63h145.71l34.25,96.63H2232l-140.6-365h-68ZM2056.13,918.9h1.53l54.71,157H2000.91Zm203.69,302.16h151.33q41.92,0,72.6-14.32t50.1-39.11q19.42-24.79,28.89-58a271.71,271.71,0,0,0,0-142.13q-9.47-33.23-28.89-58t-50.1-39.11Q2453.07,856,2411.15,856H2259.81Zm63.91-312.9h62.89q37.31,0,61.1,10T2485,945.74q13.54,17.64,18.41,41.41a274.22,274.22,0,0,1,0,102.76q-4.87,23.77-18.41,41.41t-37.32,27.61q-23.77,10-61.1,10h-62.89Zm369.49,312.9h63.91V1077.91L2893.62,856H2822L2727,1019.62,2630.32,856h-74.13l137,221.89Z"/></svg>