<svg xmlns="http://www.w3.org/2000/svg" viewBox="0 0 150 150"><defs><style>.cls-1{fill:#0088ce;}.cls-2{fill:#fff;}</style></defs><title>esg</title><g id="Security"><g id="Spam_Firewall" data-name="Spam Firewall"><rect class="cls-1" width="150" height="150"/></g><path class="cls-2" d="M37.38,47.54H21.09v12.7H39.3v6.48H13.2V23.49H38.34V30H21.09V41.13H37.38Z"/><path class="cls-2" d="M46,58.12a21.84,21.84,0,0,0,10.45,2.76c5.07,0,7.89-2.37,7.89-5.9,0-3.27-2.18-5.19-7.7-7.18C49.56,45.23,45,41.45,45,35.22c0-7.05,5.9-12.44,15.26-12.44A22.83,22.83,0,0,1,70.66,25l-1.92,6.35a18.3,18.3,0,0,0-8.59-2.05c-5,0-7.18,2.69-7.18,5.19,0,3.33,2.5,4.87,8.27,7.12,7.5,2.82,11.16,6.61,11.16,12.83,0,6.93-5.26,13-16.42,13-4.55,0-9.3-1.28-11.67-2.69Z"/><path class="cls-2" d="M112.67,64.73a42.8,42.8,0,0,1-13.92,2.44c-7.31,0-12.83-1.86-16.93-5.77-3.85-3.66-6.09-9.36-6-15.9,0-13.66,9.75-22.45,24-22.45a28.68,28.68,0,0,1,11.48,2.05l-1.73,6.35a23.28,23.28,0,0,0-9.81-1.86c-9.23,0-15.71,5.45-15.71,15.52,0,9.81,6,15.65,15,15.65a15.11,15.11,0,0,0,6-.9V49.08H97.41V42.86h15.26Z"/><path class="cls-2" d="M16.39,105.09a4.74,4.74,0,0,1,.95.09,2.3,2.3,0,0,1,.8.32,1.7,1.7,0,0,1,.55.59,2,2,0,0,1,.11,1.52,1.81,1.81,0,0,1-.28.53,1.77,1.77,0,0,1-.43.4,1.59,1.59,0,0,1-.55.23v0a1.85,1.85,0,0,1,1.21.62,1.91,1.91,0,0,1,.45,1.29,3,3,0,0,1,0,.42,2,2,0,0,1-.42,1,1.7,1.7,0,0,1-.5.42,3,3,0,0,1-.77.3,4.51,4.51,0,0,1-1.09.12H13.08v-7.84Zm0,3.44a2.59,2.59,0,0,0,.78-.1,1.61,1.61,0,0,0,.55-.29,1.17,1.17,0,0,0,.33-.42,1.24,1.24,0,0,0,.11-.52q0-1.47-1.77-1.47H13.82v2.8Zm0,3.77a4.19,4.19,0,0,0,.79-.07,1.81,1.81,0,0,0,.66-.26,1.33,1.33,0,0,0,.45-.5,1.68,1.68,0,0,0,.16-.79,1.3,1.3,0,0,0-.53-1.14,2.62,2.62,0,0,0-1.53-.38H13.82v3.13Z"/><path class="cls-2" d="M20.41,108.14a1.63,1.63,0,0,1,.48-.59,2,2,0,0,1,.71-.34,3.45,3.45,0,0,1,.9-.11,4,4,0,0,1,.75.07,1.82,1.82,0,0,1,.67.27,1.48,1.48,0,0,1,.48.55,2,2,0,0,1,.19.93v3a.36.36,0,0,0,.41.42.54.54,0,0,0,.22,0v.58l-.21,0h-.24a1,1,0,0,1-.42-.07.57.57,0,0,1-.25-.2.75.75,0,0,1-.12-.31,2.65,2.65,0,0,1,0-.4h0a4.68,4.68,0,0,1-.38.49,1.89,1.89,0,0,1-.43.36,2,2,0,0,1-.54.22,3,3,0,0,1-.72.08,2.84,2.84,0,0,1-.74-.09,1.66,1.66,0,0,1-.6-.3,1.41,1.41,0,0,1-.41-.52,1.71,1.71,0,0,1-.15-.74,1.47,1.47,0,0,1,.26-.93,1.66,1.66,0,0,1,.7-.51,4,4,0,0,1,1-.25l1.1-.14.38-.05a.67.67,0,0,0,.27-.12.54.54,0,0,0,.17-.23,1,1,0,0,0,.06-.37,1.26,1.26,0,0,0-.12-.58.91.91,0,0,0-.32-.36,1.3,1.3,0,0,0-.47-.18,3.22,3.22,0,0,0-.58,0,1.75,1.75,0,0,0-1.08.31,1.23,1.23,0,0,0-.44,1H20.2A2.31,2.31,0,0,1,20.41,108.14Zm3.46,1.69a.4.4,0,0,1-.25.18l-.33.08-.91.14a5,5,0,0,0-.85.18,1.67,1.67,0,0,0-.63.35.83.83,0,0,0-.25.64,1,1,0,0,0,.1.47,1.12,1.12,0,0,0,.28.35,1.23,1.23,0,0,0,.41.23,1.48,1.48,0,0,0,.47.08,2.38,2.38,0,0,0,.76-.12,1.86,1.86,0,0,0,.63-.35,1.68,1.68,0,0,0,.59-1.31v-.9Z"/><path class="cls-2" d="M26.61,107.26v1.33h0a2.18,2.18,0,0,1,.82-1.07,2.14,2.14,0,0,1,1.32-.34v.69a2.08,2.08,0,0,0-.86.13,1.93,1.93,0,0,0-.66.42,1.9,1.9,0,0,0-.43.65,2.18,2.18,0,0,0-.15.83v3H26v-5.67Z"/><path class="cls-2" d="M30.07,107.26v1.33h0a2.18,2.18,0,0,1,.82-1.07,2.14,2.14,0,0,1,1.32-.34v.69a2.08,2.08,0,0,0-.86.13,1.93,1.93,0,0,0-.66.42,1.9,1.9,0,0,0-.43.65,2.18,2.18,0,0,0-.15.83v3h-.69v-5.67Z"/><path class="cls-2" d="M33,108.14a1.62,1.62,0,0,1,.48-.59,2,2,0,0,1,.71-.34,3.45,3.45,0,0,1,.9-.11,4,4,0,0,1,.75.07,1.82,1.82,0,0,1,.67.27A1.47,1.47,0,0,1,37,108a2,2,0,0,1,.19.93v3a.36.36,0,0,0,.41.42.54.54,0,0,0,.22,0v.58l-.21,0h-.24a1,1,0,0,1-.42-.07.57.57,0,0,1-.25-.2.76.76,0,0,1-.12-.31,2.72,2.72,0,0,1,0-.4h0a4.75,4.75,0,0,1-.38.49,1.89,1.89,0,0,1-.43.36,2,2,0,0,1-.54.22,2.94,2.94,0,0,1-.72.08,2.84,2.84,0,0,1-.74-.09,1.67,1.67,0,0,1-.6-.3,1.41,1.41,0,0,1-.41-.52,1.71,1.71,0,0,1-.15-.74,1.47,1.47,0,0,1,.26-.93,1.66,1.66,0,0,1,.7-.51,4,4,0,0,1,1-.25l1.1-.14.38-.05a.68.68,0,0,0,.27-.12.53.53,0,0,0,.17-.23,1,1,0,0,0,.06-.37,1.26,1.26,0,0,0-.12-.58.92.92,0,0,0-.32-.36,1.3,1.3,0,0,0-.47-.18,3.21,3.21,0,0,0-.58,0A1.75,1.75,0,0,0,34,108a1.23,1.23,0,0,0-.44,1h-.69A2.3,2.3,0,0,1,33,108.14Zm3.46,1.69a.4.4,0,0,1-.25.18l-.33.08-.91.14a5,5,0,0,0-.85.18,1.67,1.67,0,0,0-.63.35.82.82,0,0,0-.25.64,1,1,0,0,0,.1.47,1.12,1.12,0,0,0,.28.35,1.23,1.23,0,0,0,.41.23,1.48,1.48,0,0,0,.47.08,2.38,2.38,0,0,0,.76-.12,1.86,1.86,0,0,0,.63-.35,1.71,1.71,0,0,0,.43-.56,1.69,1.69,0,0,0,.16-.75v-.9Z"/><path class="cls-2" d="M42.06,108a1.51,1.51,0,0,0-1.08-.36,1.75,1.75,0,0,0-.87.21,1.91,1.91,0,0,0-.62.55,2.49,2.49,0,0,0-.37.77,3.15,3.15,0,0,0,0,1.77,2.49,2.49,0,0,0,.37.77,1.91,1.91,0,0,0,.62.55,1.75,1.75,0,0,0,.87.21,1.53,1.53,0,0,0,.6-.12,1.63,1.63,0,0,0,.51-.33,1.8,1.8,0,0,0,.36-.51,1.88,1.88,0,0,0,.18-.65h.69a2.62,2.62,0,0,1-.76,1.61,2.22,2.22,0,0,1-1.58.58,2.65,2.65,0,0,1-1.15-.24,2.43,2.43,0,0,1-.84-.64,2.8,2.8,0,0,1-.52-1,3.91,3.91,0,0,1,0-2.32A2.8,2.8,0,0,1,39,108a2.5,2.5,0,0,1,.84-.65A2.6,2.6,0,0,1,41,107.1a2.46,2.46,0,0,1,1.54.48,2.06,2.06,0,0,1,.75,1.46h-.69A1.91,1.91,0,0,0,42.06,108Z"/><path class="cls-2" d="M48.24,112.93v-1h0a2,2,0,0,1-.8.87,2.27,2.27,0,0,1-1.16.3,2.52,2.52,0,0,1-.92-.15,1.53,1.53,0,0,1-.61-.42,1.7,1.7,0,0,1-.35-.67,3.35,3.35,0,0,1-.11-.9v-3.68H45V111a1.84,1.84,0,0,0,.36,1.16,1.79,1.79,0,0,0,1.93.2,1.63,1.63,0,0,0,.53-.51,2.32,2.32,0,0,0,.31-.73,3.62,3.62,0,0,0,.1-.84v-3h.69v5.67Z"/><path class="cls-2" d="M54.53,112.93v-1.08h0a1.63,1.63,0,0,1-.32.51,2.11,2.11,0,0,1-.49.39,2.54,2.54,0,0,1-.59.25,2.29,2.29,0,0,1-.62.09,2.51,2.51,0,0,1-1.13-.24,2.25,2.25,0,0,1-.8-.65,2.77,2.77,0,0,1-.47-1,4.36,4.36,0,0,1,0-2.29,2.77,2.77,0,0,1,.47-1,2.31,2.31,0,0,1,.8-.65,2.46,2.46,0,0,1,1.13-.24,2.5,2.5,0,0,1,.62.08,2.09,2.09,0,0,1,.57.24,2,2,0,0,1,.47.39,1.63,1.63,0,0,1,.31.54h0v-3.25h.69v7.84Zm-3.79-2a2.42,2.42,0,0,0,.33.77,1.81,1.81,0,0,0,.58.55,1.6,1.6,0,0,0,.85.21,1.86,1.86,0,0,0,.93-.21,1.84,1.84,0,0,0,.62-.55,2.27,2.27,0,0,0,.34-.77,3.7,3.7,0,0,0,0-1.75,2.28,2.28,0,0,0-.34-.77,1.78,1.78,0,0,0-1.54-.77,1.59,1.59,0,0,0-.85.21,1.81,1.81,0,0,0-.58.55,2.43,2.43,0,0,0-.33.77,3.72,3.72,0,0,0,0,1.75Z"/><path class="cls-2" d="M56.63,108.14a1.63,1.63,0,0,1,.48-.59,2,2,0,0,1,.71-.34,3.45,3.45,0,0,1,.9-.11,4,4,0,0,1,.75.07,1.82,1.82,0,0,1,.67.27,1.48,1.48,0,0,1,.48.55,2,2,0,0,1,.19.93v3a.36.36,0,0,0,.41.42.54.54,0,0,0,.22,0v.58l-.21,0H61a1,1,0,0,1-.42-.07.57.57,0,0,1-.25-.2.75.75,0,0,1-.12-.31,2.65,2.65,0,0,1,0-.4h0a4.68,4.68,0,0,1-.38.49,1.89,1.89,0,0,1-.43.36,2,2,0,0,1-.54.22,3,3,0,0,1-.72.08,2.84,2.84,0,0,1-.74-.09,1.66,1.66,0,0,1-.6-.3,1.41,1.41,0,0,1-.41-.52,1.71,1.71,0,0,1-.15-.74,1.47,1.47,0,0,1,.26-.93,1.66,1.66,0,0,1,.7-.51,4,4,0,0,1,1-.25l1.1-.14.38-.05a.67.67,0,0,0,.27-.12.54.54,0,0,0,.17-.23,1,1,0,0,0,.06-.37,1.26,1.26,0,0,0-.12-.58.91.91,0,0,0-.32-.36,1.3,1.3,0,0,0-.47-.18,3.22,3.22,0,0,0-.58,0,1.75,1.75,0,0,0-1.08.31,1.23,1.23,0,0,0-.44,1h-.69A2.31,2.31,0,0,1,56.63,108.14Zm3.46,1.69a.4.4,0,0,1-.25.18l-.33.08-.91.14a5,5,0,0,0-.85.18,1.67,1.67,0,0,0-.63.35.83.83,0,0,0-.25.64,1,1,0,0,0,.1.47,1.12,1.12,0,0,0,.28.35,1.23,1.23,0,0,0,.41.23,1.48,1.48,0,0,0,.47.08,2.38,2.38,0,0,0,.76-.12,1.86,1.86,0,0,0,.63-.35,1.68,1.68,0,0,0,.59-1.31v-.9Z"/><path class="cls-2" d="M13.12,118.63h5.64v1.19H14.49v2.05h4V123h-4v2.29h4.35v1.19H13.12Z"/><path class="cls-2" d="M19.86,120.79H21v.79h0a3.16,3.16,0,0,1,.31-.38,1.68,1.68,0,0,1,.37-.3,1.87,1.87,0,0,1,.47-.19,2.33,2.33,0,0,1,.6-.07,2.06,2.06,0,0,1,1,.23,1.31,1.31,0,0,1,.63.71,2.54,2.54,0,0,1,.74-.69,2,2,0,0,1,1-.25,2.05,2.05,0,0,1,1.4.44,1.87,1.87,0,0,1,.5,1.47v3.92H26.85v-3.32q0-.34,0-.62a1.27,1.27,0,0,0-.13-.48.72.72,0,0,0-.31-.31,1.24,1.24,0,0,0-.57-.11,1.06,1.06,0,0,0-.92.4,1.89,1.89,0,0,0-.29,1.12v3.33H23.36v-3.65a1.55,1.55,0,0,0-.21-.9.9.9,0,0,0-.79-.3,1.15,1.15,0,0,0-.47.1,1.17,1.17,0,0,0-.4.29,1.42,1.42,0,0,0-.27.46,1.75,1.75,0,0,0-.1.63v3.37H19.86Z"/><path class="cls-2" d="M34.17,125.2a.66.66,0,0,0,.06.33.25.25,0,0,0,.24.1h.13l.18,0v.87l-.17,0-.21,0-.22,0H34a1.21,1.21,0,0,1-.64-.15.76.76,0,0,1-.33-.54,2.22,2.22,0,0,1-.92.53,3.63,3.63,0,0,1-1,.16,2.56,2.56,0,0,1-.74-.1,1.93,1.93,0,0,1-.62-.31,1.48,1.48,0,0,1-.43-.52,1.59,1.59,0,0,1-.16-.73,1.69,1.69,0,0,1,.19-.86,1.43,1.43,0,0,1,.51-.52,2.27,2.27,0,0,1,.7-.27q.39-.08.79-.13a6.5,6.5,0,0,1,.65-.09,3,3,0,0,0,.54-.09.83.83,0,0,0,.37-.2.56.56,0,0,0,.14-.41.64.64,0,0,0-.12-.4.78.78,0,0,0-.29-.24,1.25,1.25,0,0,0-.38-.11l-.4,0a1.57,1.57,0,0,0-.87.22.86.86,0,0,0-.38.68H29.32a1.89,1.89,0,0,1,.26-.91,1.82,1.82,0,0,1,.59-.58,2.4,2.4,0,0,1,.81-.31,4.8,4.8,0,0,1,.92-.09,3.88,3.88,0,0,1,.82.09,2.35,2.35,0,0,1,.73.29,1.58,1.58,0,0,1,.52.51,1.4,1.4,0,0,1,.2.76Zm-1.25-1.58a1.52,1.52,0,0,1-.7.23q-.42,0-.83.12a2.62,2.62,0,0,0-.38.09,1.16,1.16,0,0,0-.33.16.73.73,0,0,0-.22.27.94.94,0,0,0-.08.41.52.52,0,0,0,.12.35.88.88,0,0,0,.29.23,1.34,1.34,0,0,0,.37.12l.37,0a2,2,0,0,0,.45-.06,1.48,1.48,0,0,0,.46-.19,1.19,1.19,0,0,0,.36-.33.85.85,0,0,0,.14-.5Z"/><path class="cls-2" d="M35.56,118.63h1.25v1.19H35.56Zm0,2.16h1.25v5.68H35.56Z"/><path class="cls-2" d="M38.2,118.63h1.25v7.84H38.2Z"/><path class="cls-2" d="M44.94,123.85a1.75,1.75,0,0,0,.15.77,1.39,1.39,0,0,0,.43.52,1.82,1.82,0,0,0,.63.3,3,3,0,0,0,.77.09,2.49,2.49,0,0,0,.77-.1,1.56,1.56,0,0,0,.52-.27,1,1,0,0,0,.29-.38,1.14,1.14,0,0,0,.09-.43.94.94,0,0,0-.2-.66,1.16,1.16,0,0,0-.44-.3,9.29,9.29,0,0,0-1-.29l-1.37-.36a2.92,2.92,0,0,1-.84-.35,2,2,0,0,1-.53-.48,1.68,1.68,0,0,1-.28-.56,2.24,2.24,0,0,1-.08-.6,2,2,0,0,1,.25-1,2.21,2.21,0,0,1,.65-.72,2.89,2.89,0,0,1,.92-.42,4,4,0,0,1,1-.14,4.11,4.11,0,0,1,1.16.16,2.86,2.86,0,0,1,1,.48,2.26,2.26,0,0,1,.9,1.87H48.37a1.32,1.32,0,0,0-.52-1.07,2.05,2.05,0,0,0-1.17-.31,2.58,2.58,0,0,0-.49,0,1.57,1.57,0,0,0-.46.17,1,1,0,0,0-.35.31,1,1,0,0,0,.12,1.15,1.67,1.67,0,0,0,.68.36l.35.09.67.18.73.19.51.14a2.31,2.31,0,0,1,.67.33,2.1,2.1,0,0,1,.48.48,2,2,0,0,1,.29.58,2.1,2.1,0,0,1,.09.62,2.22,2.22,0,0,1-.27,1.13,2.28,2.28,0,0,1-.71.76,3.08,3.08,0,0,1-1,.43,4.79,4.79,0,0,1-1.14.14,4.7,4.7,0,0,1-1.26-.16,3,3,0,0,1-1-.51,2.47,2.47,0,0,1-.7-.87,2.91,2.91,0,0,1-.27-1.26Z"/><path class="cls-2" d="M52,124a2.17,2.17,0,0,0,.09.64,1.57,1.57,0,0,0,.28.54,1.35,1.35,0,0,0,.47.37,1.56,1.56,0,0,0,.68.14,1.5,1.5,0,0,0,.88-.24,1.39,1.39,0,0,0,.5-.71h1.19a2.36,2.36,0,0,1-.92,1.43,2.51,2.51,0,0,1-.76.37,3.08,3.08,0,0,1-.88.13,3,3,0,0,1-1.19-.22,2.45,2.45,0,0,1-.87-.61,2.62,2.62,0,0,1-.54-.94,3.84,3.84,0,0,1-.18-1.21,3.42,3.42,0,0,1,.19-1.15,3,3,0,0,1,.55-1,2.58,2.58,0,0,1,2-.9,2.54,2.54,0,0,1,1.2.28,2.64,2.64,0,0,1,.88.74,3,3,0,0,1,.51,1.06,3.24,3.24,0,0,1,.08,1.24Zm2.92-.82a2,2,0,0,0-.13-.57,1.52,1.52,0,0,0-.29-.48,1.41,1.41,0,0,0-.44-.33,1.3,1.3,0,0,0-.58-.13,1.51,1.51,0,0,0-.6.12,1.37,1.37,0,0,0-.46.32,1.56,1.56,0,0,0-.31.48,1.66,1.66,0,0,0-.13.59Z"/><path class="cls-2" d="M60.92,122.69a1.18,1.18,0,0,0-.42-.8,1.38,1.38,0,0,0-.87-.27,1.79,1.79,0,0,0-.52.08,1.22,1.22,0,0,0-.51.31,1.72,1.72,0,0,0-.38.63,3,3,0,0,0-.15,1,3.06,3.06,0,0,0,.08.7,1.9,1.9,0,0,0,.26.63,1.42,1.42,0,0,0,.47.44,1.33,1.33,0,0,0,.69.17,1.26,1.26,0,0,0,.91-.34,1.59,1.59,0,0,0,.44-1h1.25a2.75,2.75,0,0,1-.84,1.7,2.56,2.56,0,0,1-1.76.59,2.91,2.91,0,0,1-1.18-.23,2.49,2.49,0,0,1-.86-.62,2.61,2.61,0,0,1-.53-.93,3.63,3.63,0,0,1-.18-1.16,4,4,0,0,1,.18-1.2,2.73,2.73,0,0,1,.53-1,2.46,2.46,0,0,1,.87-.65,3,3,0,0,1,1.22-.24,3.43,3.43,0,0,1,.94.13,2.46,2.46,0,0,1,.79.38,2,2,0,0,1,.57.64,2.18,2.18,0,0,1,.26.91Z"/><path class="cls-2" d="M68.18,126.47H67v-.79h0a1.72,1.72,0,0,1-.69.69,1.87,1.87,0,0,1-.93.26,2.08,2.08,0,0,1-1.62-.55,2.43,2.43,0,0,1-.5-1.67v-3.6h1.25v3.48a1.54,1.54,0,0,0,.29,1.05,1,1,0,0,0,.8.31,1.57,1.57,0,0,0,.66-.12,1.16,1.16,0,0,0,.43-.32,1.24,1.24,0,0,0,.24-.49,2.54,2.54,0,0,0,.07-.61v-3.29h1.25Z"/><path class="cls-2" d="M69.5,120.79h1.17v1.1h0a1.26,1.26,0,0,1,.21-.45,2.08,2.08,0,0,1,.38-.4,1.94,1.94,0,0,1,.5-.29,1.49,1.49,0,0,1,.56-.11h.3l.17,0v1.21l-.27,0-.27,0a1.44,1.44,0,0,0-.6.13,1.37,1.37,0,0,0-.49.37,1.83,1.83,0,0,0-.33.61,2.64,2.64,0,0,0-.12.83v2.7H69.5Z"/><path class="cls-2" d="M73.4,118.63h1.25v1.19H73.4Zm0,2.16h1.25v5.68H73.4Z"/><path class="cls-2" d="M75.44,120.79h.94v-1.7h1.25v1.7h1.13v.93H77.63v3a3.08,3.08,0,0,0,0,.34.58.58,0,0,0,.08.24.37.37,0,0,0,.18.15.89.89,0,0,0,.33,0h.26l.26,0v1l-.41,0-.41,0a2.78,2.78,0,0,1-.8-.09,1.06,1.06,0,0,1-.47-.27,1,1,0,0,1-.23-.46,3.45,3.45,0,0,1-.07-.63v-3.35h-.94Z"/><path class="cls-2" d="M79,120.79h1.37L81.9,125h0l1.44-4.24h1.31l-2.21,6-.3.74a2.63,2.63,0,0,1-.36.62,1.57,1.57,0,0,1-.53.43,1.82,1.82,0,0,1-.81.16,5.7,5.7,0,0,1-.87-.07V127.6l.3,0,.3,0a1,1,0,0,0,.36-.06.59.59,0,0,0,.24-.16,1,1,0,0,0,.16-.25,2.43,2.43,0,0,0,.12-.33l.14-.44Z"/><path class="cls-2" d="M95.44,126.47h-.88l-.21-.92a3.27,3.27,0,0,1-1.1.87,3.12,3.12,0,0,1-1.26.24,3.7,3.7,0,0,1-1.58-.32,3.47,3.47,0,0,1-1.18-.88,4,4,0,0,1-.74-1.31,5,5,0,0,1,0-3.17,4,4,0,0,1,.74-1.31,3.53,3.53,0,0,1,1.18-.89,3.64,3.64,0,0,1,1.58-.33,4.27,4.27,0,0,1,1.21.17,3.25,3.25,0,0,1,1,.5A2.79,2.79,0,0,1,95,120a3,3,0,0,1,.37,1.16H94a1.68,1.68,0,0,0-.69-1.16,2,2,0,0,0-.61-.3,2.55,2.55,0,0,0-.71-.1,2.2,2.2,0,0,0-1.08.25,2.12,2.12,0,0,0-.74.68,3.05,3.05,0,0,0-.42,1,4.46,4.46,0,0,0,0,2.2,3,3,0,0,0,.42,1,2.12,2.12,0,0,0,.74.68,2.2,2.2,0,0,0,1.08.25,2.54,2.54,0,0,0,.93-.14,1.84,1.84,0,0,0,.69-.43,1.79,1.79,0,0,0,.42-.69,2.9,2.9,0,0,0,.15-.9H92.1v-1h3.34Z"/><path class="cls-2" d="M101.51,125.2a.66.66,0,0,0,.06.33.25.25,0,0,0,.24.1h.13l.18,0v.87l-.17,0-.21,0-.22,0h-.19a1.21,1.21,0,0,1-.64-.15.76.76,0,0,1-.33-.54,2.22,2.22,0,0,1-.92.53,3.62,3.62,0,0,1-1,.16,2.56,2.56,0,0,1-.74-.1,1.93,1.93,0,0,1-.62-.31,1.48,1.48,0,0,1-.43-.52,1.59,1.59,0,0,1-.16-.73,1.68,1.68,0,0,1,.19-.86,1.42,1.42,0,0,1,.51-.52,2.27,2.27,0,0,1,.7-.27q.39-.08.79-.13a6.49,6.49,0,0,1,.65-.09,3,3,0,0,0,.54-.09.84.84,0,0,0,.37-.2.56.56,0,0,0,.14-.41.64.64,0,0,0-.12-.4.77.77,0,0,0-.29-.24,1.25,1.25,0,0,0-.38-.11l-.4,0a1.57,1.57,0,0,0-.87.22.86.86,0,0,0-.38.68H96.65a1.89,1.89,0,0,1,.26-.91,1.82,1.82,0,0,1,.59-.58,2.4,2.4,0,0,1,.81-.31,4.8,4.8,0,0,1,.92-.09,3.88,3.88,0,0,1,.82.09,2.34,2.34,0,0,1,.73.29,1.58,1.58,0,0,1,.52.51,1.4,1.4,0,0,1,.2.76Zm-1.25-1.58a1.52,1.52,0,0,1-.7.23q-.42,0-.83.12a2.63,2.63,0,0,0-.38.09,1.15,1.15,0,0,0-.33.16.72.72,0,0,0-.23.27.94.94,0,0,0-.08.41.52.52,0,0,0,.12.35.87.87,0,0,0,.29.23,1.33,1.33,0,0,0,.37.12l.37,0a2,2,0,0,0,.45-.06,1.49,1.49,0,0,0,.46-.19,1.2,1.2,0,0,0,.36-.33.85.85,0,0,0,.14-.5Z"/><path class="cls-2" d="M102.29,120.79h.94v-1.7h1.25v1.7h1.13v.93h-1.13v3a3,3,0,0,0,0,.34.58.58,0,0,0,.08.24.36.36,0,0,0,.18.15.89.89,0,0,0,.33,0h.26l.26,0v1l-.41,0-.41,0a2.78,2.78,0,0,1-.8-.09,1.06,1.06,0,0,1-.47-.27,1,1,0,0,1-.23-.46,3.41,3.41,0,0,1-.07-.63v-3.35h-.94Z"/><path class="cls-2" d="M107.49,124a2.18,2.18,0,0,0,.09.64,1.57,1.57,0,0,0,.28.54,1.35,1.35,0,0,0,.47.37,1.56,1.56,0,0,0,.68.14,1.5,1.5,0,0,0,.88-.24,1.39,1.39,0,0,0,.5-.71h1.19a2.36,2.36,0,0,1-.92,1.43,2.51,2.51,0,0,1-.76.37,3.08,3.08,0,0,1-.88.13,3,3,0,0,1-1.19-.22,2.46,2.46,0,0,1-.87-.61,2.63,2.63,0,0,1-.54-.94,3.86,3.86,0,0,1-.18-1.21,3.41,3.41,0,0,1,.19-1.15,2.94,2.94,0,0,1,.55-1,2.58,2.58,0,0,1,2-.9,2.54,2.54,0,0,1,1.2.28,2.63,2.63,0,0,1,.88.74,3,3,0,0,1,.51,1.06,3.25,3.25,0,0,1,.08,1.24Zm2.92-.82a2,2,0,0,0-.13-.57,1.52,1.52,0,0,0-.29-.48,1.41,1.41,0,0,0-.44-.33,1.3,1.3,0,0,0-.58-.13,1.51,1.51,0,0,0-.6.12,1.36,1.36,0,0,0-.46.32,1.57,1.57,0,0,0-.31.48,1.65,1.65,0,0,0-.13.59Z"/><path class="cls-2" d="M112.1,120.79h1.33l1.11,4.24h0l1.07-4.24h1.26l1,4.24h0l1.15-4.24h1.27l-1.78,5.68H117.3l-1.05-4.22h0l-1,4.22h-1.32Z"/><path class="cls-2" d="M125.92,125.2a.66.66,0,0,0,.06.33.25.25,0,0,0,.24.1h.13l.18,0v.87l-.17,0-.21,0-.22,0h-.19a1.2,1.2,0,0,1-.64-.15.76.76,0,0,1-.33-.54,2.22,2.22,0,0,1-.92.53,3.63,3.63,0,0,1-1,.16,2.56,2.56,0,0,1-.74-.1,1.93,1.93,0,0,1-.62-.31,1.48,1.48,0,0,1-.43-.52,1.59,1.59,0,0,1-.16-.73,1.69,1.69,0,0,1,.19-.86,1.43,1.43,0,0,1,.5-.52,2.28,2.28,0,0,1,.7-.27q.39-.08.79-.13a6.47,6.47,0,0,1,.65-.09,3,3,0,0,0,.54-.09.83.83,0,0,0,.37-.2.56.56,0,0,0,.14-.41.64.64,0,0,0-.12-.4.78.78,0,0,0-.29-.24,1.25,1.25,0,0,0-.38-.11l-.4,0a1.57,1.57,0,0,0-.87.22.86.86,0,0,0-.38.68h-1.25a1.88,1.88,0,0,1,.26-.91,1.82,1.82,0,0,1,.59-.58,2.4,2.4,0,0,1,.81-.31,4.8,4.8,0,0,1,.92-.09,3.89,3.89,0,0,1,.82.09,2.34,2.34,0,0,1,.73.29,1.58,1.58,0,0,1,.52.51,1.4,1.4,0,0,1,.2.76Zm-1.25-1.58a1.52,1.52,0,0,1-.7.23q-.42,0-.83.12a2.64,2.64,0,0,0-.38.09,1.16,1.16,0,0,0-.33.16.73.73,0,0,0-.23.27.94.94,0,0,0-.08.41.52.52,0,0,0,.12.35.87.87,0,0,0,.29.23,1.34,1.34,0,0,0,.37.12l.37,0a2,2,0,0,0,.45-.06,1.48,1.48,0,0,0,.46-.19,1.19,1.19,0,0,0,.36-.33.85.85,0,0,0,.14-.5Z"/><path class="cls-2" d="M126.64,120.79H128L129.5,125h0l1.44-4.24h1.31l-2.21,6-.3.74a2.63,2.63,0,0,1-.36.62,1.57,1.57,0,0,1-.53.43,1.82,1.82,0,0,1-.81.16,5.7,5.7,0,0,1-.87-.07V127.6l.3,0,.3,0a1,1,0,0,0,.36-.06.59.59,0,0,0,.24-.16,1,1,0,0,0,.16-.25,2.43,2.43,0,0,0,.12-.33l.14-.44Z"/></g></svg>