<svg xmlns="http://www.w3.org/2000/svg" viewBox="0 0 150 150"><defs><style>.cls-1{fill:#0088ce;}.cls-2{fill:#fff;}</style></defs><title>waf</title><g id="Security"><g id="Spam_Firewall" data-name="Spam Firewall"><rect class="cls-1" width="150" height="150"/></g><path class="cls-2" d="M20.69,66.71,10.11,23.49h8.4l4.1,19.63c1.09,5.26,2.12,10.77,2.82,15.07h.13c.71-4.55,1.92-9.68,3.14-15.14l4.68-19.56h8.27L46,43.37c1.09,5.13,2,9.94,2.63,14.62h.13c.77-4.75,1.79-9.68,2.95-14.94l4.49-19.56h8L52.56,66.71H44.1L39.61,46.38a123.43,123.43,0,0,1-2.37-13.72h-.13c-.77,4.62-1.6,8.79-2.89,13.72l-5,20.33Z"/><path class="cls-2" d="M74.88,54.46,71.16,66.71H63L76.87,23.49H86.94l14,43.23H92.51L88.6,54.46Zm12.38-6-3.4-10.65c-.83-2.63-1.54-5.58-2.18-8.08h-.13c-.64,2.5-1.28,5.52-2.05,8.08L76.16,48.5Z"/><path class="cls-2" d="M106.62,23.49h24.95V30H114.51V41.89h15.91v6.48H114.51V66.71h-7.89Z"/><path class="cls-2" d="M16.39,105.09a4.75,4.75,0,0,1,1,.09,2.3,2.3,0,0,1,.8.32,1.69,1.69,0,0,1,.55.59,2,2,0,0,1,.11,1.52,1.81,1.81,0,0,1-.71.93,1.59,1.59,0,0,1-.55.23v0a1.84,1.84,0,0,1,1.21.62,1.9,1.9,0,0,1,.45,1.29,3.18,3.18,0,0,1,0,.42,2.07,2.07,0,0,1-.13.48,2,2,0,0,1-.29.49,1.69,1.69,0,0,1-.5.42,3,3,0,0,1-.77.3,4.52,4.52,0,0,1-1.09.12H13.08v-7.84Zm0,3.44a2.6,2.6,0,0,0,.78-.1,1.62,1.62,0,0,0,.55-.29,1.17,1.17,0,0,0,.33-.42,1.23,1.23,0,0,0,.11-.52q0-1.47-1.77-1.47H13.82v2.8Zm0,3.77a4.17,4.17,0,0,0,.79-.07,1.81,1.81,0,0,0,.66-.26,1.32,1.32,0,0,0,.45-.5,1.67,1.67,0,0,0,.17-.79,1.3,1.3,0,0,0-.53-1.14,2.63,2.63,0,0,0-1.53-.38H13.82v3.13Z"/><path class="cls-2" d="M20.41,108.14a1.62,1.62,0,0,1,.48-.59,2,2,0,0,1,.71-.34,3.45,3.45,0,0,1,.9-.11,4,4,0,0,1,.75.07,1.83,1.83,0,0,1,.67.27,1.47,1.47,0,0,1,.48.55,2,2,0,0,1,.19.93v3a.36.36,0,0,0,.41.42.53.53,0,0,0,.22,0v.58l-.21,0h-.24a1,1,0,0,1-.42-.07.56.56,0,0,1-.25-.2.75.75,0,0,1-.12-.31,2.66,2.66,0,0,1,0-.4h0a4.49,4.49,0,0,1-.38.49,1.85,1.85,0,0,1-.43.36,2,2,0,0,1-.54.22,2.94,2.94,0,0,1-.72.08,2.84,2.84,0,0,1-.74-.09,1.67,1.67,0,0,1-.6-.3,1.41,1.41,0,0,1-.41-.52,1.72,1.72,0,0,1-.15-.74,1.47,1.47,0,0,1,.26-.93,1.66,1.66,0,0,1,.7-.51,4,4,0,0,1,1-.25l1.1-.14.38-.05a.68.68,0,0,0,.27-.12.53.53,0,0,0,.17-.23,1,1,0,0,0,.06-.37,1.26,1.26,0,0,0-.12-.58.91.91,0,0,0-.32-.36,1.29,1.29,0,0,0-.47-.18,3.21,3.21,0,0,0-.58,0,1.75,1.75,0,0,0-1.08.31,1.23,1.23,0,0,0-.44,1H20.2A2.31,2.31,0,0,1,20.41,108.14Zm3.46,1.69a.39.39,0,0,1-.25.18l-.33.08-.91.14a5,5,0,0,0-.85.18,1.68,1.68,0,0,0-.63.35.83.83,0,0,0-.25.64,1,1,0,0,0,.1.47,1.14,1.14,0,0,0,.28.35,1.21,1.21,0,0,0,.41.23,1.48,1.48,0,0,0,.47.08,2.37,2.37,0,0,0,.76-.12,1.87,1.87,0,0,0,.63-.35,1.67,1.67,0,0,0,.59-1.31v-.9Z"/><path class="cls-2" d="M26.6,107.26v1.33h0a2.18,2.18,0,0,1,.82-1.07,2.15,2.15,0,0,1,1.32-.34v.69a2.09,2.09,0,0,0-.86.13,1.94,1.94,0,0,0-.66.42,1.91,1.91,0,0,0-.43.65,2.18,2.18,0,0,0-.15.83v3H26v-5.67Z"/><path class="cls-2" d="M30.06,107.26v1.33h0a2.18,2.18,0,0,1,.82-1.07,2.15,2.15,0,0,1,1.32-.34v.69a2.09,2.09,0,0,0-.86.13,1.94,1.94,0,0,0-.66.42,1.91,1.91,0,0,0-.43.65,2.18,2.18,0,0,0-.15.83v3h-.69v-5.67Z"/><path class="cls-2" d="M33,108.14a1.62,1.62,0,0,1,.48-.59,2,2,0,0,1,.71-.34,3.45,3.45,0,0,1,.9-.11,4,4,0,0,1,.75.07,1.83,1.83,0,0,1,.67.27A1.47,1.47,0,0,1,37,108a2,2,0,0,1,.19.93v3a.36.36,0,0,0,.41.42.53.53,0,0,0,.22,0v.58l-.21,0h-.24a1,1,0,0,1-.42-.07.56.56,0,0,1-.25-.2.75.75,0,0,1-.12-.31,2.66,2.66,0,0,1,0-.4h0a4.49,4.49,0,0,1-.38.49,1.85,1.85,0,0,1-.43.36,2,2,0,0,1-.54.22,2.94,2.94,0,0,1-.72.08,2.84,2.84,0,0,1-.74-.09,1.67,1.67,0,0,1-.6-.3,1.41,1.41,0,0,1-.41-.52,1.72,1.72,0,0,1-.15-.74,1.47,1.47,0,0,1,.26-.93,1.66,1.66,0,0,1,.7-.51,4,4,0,0,1,1-.25l1.1-.14.38-.05a.68.68,0,0,0,.27-.12.53.53,0,0,0,.17-.23,1,1,0,0,0,.06-.37,1.26,1.26,0,0,0-.12-.58.91.91,0,0,0-.32-.36,1.29,1.29,0,0,0-.47-.18,3.21,3.21,0,0,0-.58,0A1.75,1.75,0,0,0,34,108a1.23,1.23,0,0,0-.44,1h-.69A2.31,2.31,0,0,1,33,108.14Zm3.46,1.69a.39.39,0,0,1-.25.18l-.33.08-.91.14a5,5,0,0,0-.85.18,1.68,1.68,0,0,0-.63.35.83.83,0,0,0-.25.64,1,1,0,0,0,.1.47,1.14,1.14,0,0,0,.28.35,1.21,1.21,0,0,0,.41.23,1.48,1.48,0,0,0,.47.08,2.37,2.37,0,0,0,.76-.12,1.87,1.87,0,0,0,.63-.35,1.67,1.67,0,0,0,.59-1.31v-.9Z"/><path class="cls-2" d="M42.05,108a1.51,1.51,0,0,0-1.08-.36,1.76,1.76,0,0,0-.87.21,1.9,1.9,0,0,0-.62.55,2.46,2.46,0,0,0-.37.77,3.16,3.16,0,0,0,0,1.77,2.46,2.46,0,0,0,.37.77,1.9,1.9,0,0,0,.62.55,1.75,1.75,0,0,0,.87.21,1.54,1.54,0,0,0,.6-.12,1.63,1.63,0,0,0,.5-.33,1.8,1.8,0,0,0,.36-.51,1.91,1.91,0,0,0,.18-.65h.69a2.62,2.62,0,0,1-.76,1.61,2.22,2.22,0,0,1-1.58.58,2.65,2.65,0,0,1-1.15-.24,2.42,2.42,0,0,1-.84-.64,2.81,2.81,0,0,1-.52-1,3.93,3.93,0,0,1,0-2.32A2.81,2.81,0,0,1,39,108a2.49,2.49,0,0,1,.84-.65A2.6,2.6,0,0,1,41,107.1a2.46,2.46,0,0,1,1.54.48,2.06,2.06,0,0,1,.75,1.46h-.69A1.9,1.9,0,0,0,42.05,108Z"/><path class="cls-2" d="M48.24,112.93v-1h0a2,2,0,0,1-.8.87,2.27,2.27,0,0,1-1.16.3,2.51,2.51,0,0,1-.92-.15,1.52,1.52,0,0,1-.62-.42,1.71,1.71,0,0,1-.35-.67,3.37,3.37,0,0,1-.11-.9v-3.68H45V111a1.85,1.85,0,0,0,.36,1.16,1.45,1.45,0,0,0,1.16.4,1.47,1.47,0,0,0,.77-.19,1.64,1.64,0,0,0,.53-.51,2.3,2.3,0,0,0,.31-.73,3.56,3.56,0,0,0,.1-.84v-3h.69v5.67Z"/><path class="cls-2" d="M54.53,112.93v-1.08h0a1.61,1.61,0,0,1-.32.51,2.12,2.12,0,0,1-.49.39,2.54,2.54,0,0,1-.59.25,2.29,2.29,0,0,1-.62.09,2.51,2.51,0,0,1-1.13-.24,2.25,2.25,0,0,1-.8-.65,2.77,2.77,0,0,1-.47-1,4.37,4.37,0,0,1,0-2.29,2.77,2.77,0,0,1,.47-1,2.31,2.31,0,0,1,.8-.65,2.46,2.46,0,0,1,1.13-.24,2.51,2.51,0,0,1,.62.08,2.09,2.09,0,0,1,.57.24,2,2,0,0,1,.47.39,1.63,1.63,0,0,1,.31.54h0v-3.25h.69v7.84Zm-3.79-2a2.4,2.4,0,0,0,.33.77,1.8,1.8,0,0,0,.58.55,1.6,1.6,0,0,0,.85.21,1.86,1.86,0,0,0,.93-.21,1.85,1.85,0,0,0,.62-.55,2.31,2.31,0,0,0,.34-.77,3.7,3.7,0,0,0,0-1.75,2.32,2.32,0,0,0-.34-.77,1.78,1.78,0,0,0-1.54-.77,1.59,1.59,0,0,0-.85.21,1.81,1.81,0,0,0-.58.55,2.41,2.41,0,0,0-.33.77,3.7,3.7,0,0,0,0,1.75Z"/><path class="cls-2" d="M56.62,108.14a1.62,1.62,0,0,1,.48-.59,2,2,0,0,1,.71-.34,3.45,3.45,0,0,1,.9-.11,4,4,0,0,1,.75.07,1.83,1.83,0,0,1,.67.27,1.47,1.47,0,0,1,.48.55,2,2,0,0,1,.19.93v3a.36.36,0,0,0,.41.42.53.53,0,0,0,.22,0v.58l-.21,0H61a1,1,0,0,1-.42-.07.56.56,0,0,1-.25-.2.75.75,0,0,1-.12-.31,2.66,2.66,0,0,1,0-.4h0a4.49,4.49,0,0,1-.38.49,1.85,1.85,0,0,1-.43.36,2,2,0,0,1-.54.22,2.94,2.94,0,0,1-.72.08,2.84,2.84,0,0,1-.74-.09,1.67,1.67,0,0,1-.6-.3,1.41,1.41,0,0,1-.41-.52,1.72,1.72,0,0,1-.15-.74,1.47,1.47,0,0,1,.26-.93,1.66,1.66,0,0,1,.7-.51,4,4,0,0,1,1-.25l1.1-.14.38-.05a.68.68,0,0,0,.27-.12.53.53,0,0,0,.17-.23,1,1,0,0,0,.06-.37,1.26,1.26,0,0,0-.12-.58.91.91,0,0,0-.32-.36,1.29,1.29,0,0,0-.47-.18,3.21,3.21,0,0,0-.58,0,1.75,1.75,0,0,0-1.08.31,1.23,1.23,0,0,0-.44,1h-.69A2.31,2.31,0,0,1,56.62,108.14Zm3.46,1.69a.39.39,0,0,1-.25.18l-.33.08-.91.14a5,5,0,0,0-.85.18,1.68,1.68,0,0,0-.63.35.83.83,0,0,0-.25.64,1,1,0,0,0,.1.47,1.14,1.14,0,0,0,.28.35,1.21,1.21,0,0,0,.41.23,1.48,1.48,0,0,0,.47.08,2.37,2.37,0,0,0,.76-.12,1.87,1.87,0,0,0,.63-.35,1.67,1.67,0,0,0,.59-1.31v-.9Z"/><path class="cls-2" d="M12.35,118.62h1.39l1.42,6h0l1.58-6h1.4l1.54,6h0l1.46-6h1.39l-2.16,7.84H19l-1.57-6h0l-1.6,6H14.41Z"/><path class="cls-2" d="M24.29,124a2.17,2.17,0,0,0,.09.64,1.55,1.55,0,0,0,.28.54,1.34,1.34,0,0,0,.47.37,1.55,1.55,0,0,0,.68.14,1.5,1.5,0,0,0,.88-.24,1.4,1.4,0,0,0,.5-.71h1.19a2.36,2.36,0,0,1-.92,1.43,2.52,2.52,0,0,1-.76.37,3.08,3.08,0,0,1-.88.13,3,3,0,0,1-1.19-.22,2.46,2.46,0,0,1-.87-.61,2.61,2.61,0,0,1-.54-.94,3.86,3.86,0,0,1-.18-1.21,3.42,3.42,0,0,1,.19-1.15,3,3,0,0,1,.55-1,2.58,2.58,0,0,1,2-.9,2.54,2.54,0,0,1,1.2.28,2.63,2.63,0,0,1,.88.74,3,3,0,0,1,.51,1.06,3.25,3.25,0,0,1,.08,1.24Zm2.92-.82a2,2,0,0,0-.13-.57,1.53,1.53,0,0,0-.29-.48,1.41,1.41,0,0,0-.44-.33,1.3,1.3,0,0,0-.58-.13,1.51,1.51,0,0,0-.6.12,1.35,1.35,0,0,0-.46.32,1.56,1.56,0,0,0-.31.48,1.65,1.65,0,0,0-.13.59Z"/><path class="cls-2" d="M29.45,118.62H30.7v2.9h0a1.71,1.71,0,0,1,.32-.37,2,2,0,0,1,.41-.28,2.15,2.15,0,0,1,.47-.18,2.06,2.06,0,0,1,.49-.06,2.71,2.71,0,0,1,1.17.24,2.3,2.3,0,0,1,.83.65,2.82,2.82,0,0,1,.49,1,4.05,4.05,0,0,1,.17,1.18,4.16,4.16,0,0,1-.15,1.11,2.9,2.9,0,0,1-.45.95,2.19,2.19,0,0,1-1.85.91,4.43,4.43,0,0,1-.58,0,2.2,2.2,0,0,1-.55-.15,1.9,1.9,0,0,1-.48-.29,1.36,1.36,0,0,1-.36-.46h0v.78H29.45Zm4.37,5a2.8,2.8,0,0,0-.1-.75,2,2,0,0,0-.3-.64,1.53,1.53,0,0,0-.49-.45,1.35,1.35,0,0,0-.68-.17,1.38,1.38,0,0,0-1.19.55,2.42,2.42,0,0,0-.4,1.46,2.92,2.92,0,0,0,.1.8,1.8,1.8,0,0,0,.31.63,1.58,1.58,0,0,0,.5.42,1.43,1.43,0,0,0,.68.15,1.4,1.4,0,0,0,.72-.18,1.54,1.54,0,0,0,.49-.46,1.85,1.85,0,0,0,.28-.64A3.25,3.25,0,0,0,33.82,123.63Z"/><path class="cls-2" d="M41.23,118.62h1.46l3,7.84H44.24l-.74-2.08H40.37l-.73,2.08H38.22Zm-.48,4.72h2.39L42,120h0Z"/><path class="cls-2" d="M46.31,120.79H47.5v.77h0a1.54,1.54,0,0,1,.73-.71,2.44,2.44,0,0,1,1-.21,2.71,2.71,0,0,1,1.17.24,2.3,2.3,0,0,1,.83.65,2.82,2.82,0,0,1,.49,1,4.05,4.05,0,0,1,.17,1.18,4.16,4.16,0,0,1-.15,1.11,2.9,2.9,0,0,1-.45.95,2.19,2.19,0,0,1-1.85.91,3.1,3.1,0,0,1-.55,0,2.39,2.39,0,0,1-.53-.16,2.08,2.08,0,0,1-.47-.28,1.54,1.54,0,0,1-.36-.4h0v2.83H46.31Zm4.37,2.84a2.8,2.8,0,0,0-.1-.75,2,2,0,0,0-.3-.64,1.53,1.53,0,0,0-.49-.45,1.35,1.35,0,0,0-.68-.17,1.38,1.38,0,0,0-1.19.55,2.42,2.42,0,0,0-.4,1.46,2.92,2.92,0,0,0,.1.8,1.8,1.8,0,0,0,.31.63,1.58,1.58,0,0,0,.5.42,1.43,1.43,0,0,0,.68.15,1.4,1.4,0,0,0,.72-.18,1.54,1.54,0,0,0,.49-.46,1.85,1.85,0,0,0,.28-.64A3.25,3.25,0,0,0,50.69,123.63Z"/><path class="cls-2" d="M53,120.79h1.19v.77h0a1.54,1.54,0,0,1,.73-.71,2.44,2.44,0,0,1,1-.21,2.71,2.71,0,0,1,1.17.24,2.3,2.3,0,0,1,.83.65,2.82,2.82,0,0,1,.49,1,4.05,4.05,0,0,1,.17,1.18,4.16,4.16,0,0,1-.15,1.11,2.9,2.9,0,0,1-.45.95,2.19,2.19,0,0,1-1.85.91,3.1,3.1,0,0,1-.55,0,2.39,2.39,0,0,1-.53-.16,2.08,2.08,0,0,1-.47-.28,1.54,1.54,0,0,1-.36-.4h0v2.83H53Zm4.37,2.84a2.8,2.8,0,0,0-.1-.75,2,2,0,0,0-.3-.64,1.53,1.53,0,0,0-.49-.45,1.35,1.35,0,0,0-.68-.17,1.38,1.38,0,0,0-1.19.55,2.42,2.42,0,0,0-.4,1.46,2.92,2.92,0,0,0,.1.8,1.8,1.8,0,0,0,.31.63,1.58,1.58,0,0,0,.5.42,1.43,1.43,0,0,0,.68.15,1.4,1.4,0,0,0,.72-.18A1.54,1.54,0,0,0,57,125a1.85,1.85,0,0,0,.28-.64A3.25,3.25,0,0,0,57.39,123.63Z"/><path class="cls-2" d="M59.73,118.62H61v7.84H59.73Z"/><path class="cls-2" d="M62.38,118.62h1.25v1.19H62.38Zm0,2.16h1.25v5.68H62.38Z"/><path class="cls-2" d="M68.83,122.69a1.17,1.17,0,0,0-.42-.8,1.38,1.38,0,0,0-.87-.27,1.8,1.8,0,0,0-.52.08,1.21,1.21,0,0,0-.5.31,1.71,1.71,0,0,0-.38.63,3,3,0,0,0-.15,1,3.09,3.09,0,0,0,.08.7,1.9,1.9,0,0,0,.26.63,1.43,1.43,0,0,0,.47.44,1.32,1.32,0,0,0,.69.17,1.26,1.26,0,0,0,.91-.34,1.58,1.58,0,0,0,.45-1h1.25a2.75,2.75,0,0,1-.84,1.7,2.56,2.56,0,0,1-1.76.59,2.9,2.9,0,0,1-1.18-.23,2.49,2.49,0,0,1-.86-.62,2.61,2.61,0,0,1-.53-.93,3.62,3.62,0,0,1-.18-1.16,4,4,0,0,1,.18-1.2,2.74,2.74,0,0,1,.53-1,2.46,2.46,0,0,1,.87-.65,3,3,0,0,1,1.22-.24,3.43,3.43,0,0,1,.94.13,2.47,2.47,0,0,1,.79.38,2,2,0,0,1,.57.64,2.18,2.18,0,0,1,.26.91Z"/><path class="cls-2" d="M75.85,125.2a.65.65,0,0,0,.06.33.25.25,0,0,0,.24.1h.13l.18,0v.87l-.17,0-.21,0-.22,0h-.19a1.21,1.21,0,0,1-.64-.15.76.76,0,0,1-.33-.54,2.22,2.22,0,0,1-.92.53,3.61,3.61,0,0,1-1,.16,2.56,2.56,0,0,1-.74-.1,1.93,1.93,0,0,1-.62-.31,1.47,1.47,0,0,1-.43-.52,1.58,1.58,0,0,1-.16-.73,1.69,1.69,0,0,1,.19-.86,1.42,1.42,0,0,1,.5-.52,2.28,2.28,0,0,1,.7-.27q.39-.08.79-.13a6.48,6.48,0,0,1,.65-.09,3,3,0,0,0,.54-.09.84.84,0,0,0,.37-.2.56.56,0,0,0,.14-.41.64.64,0,0,0-.12-.4.78.78,0,0,0-.29-.24,1.24,1.24,0,0,0-.38-.11l-.39,0a1.57,1.57,0,0,0-.87.22.86.86,0,0,0-.38.68H71a1.87,1.87,0,0,1,.26-.91,1.82,1.82,0,0,1,.59-.58,2.39,2.39,0,0,1,.81-.31,4.8,4.8,0,0,1,.92-.09,3.89,3.89,0,0,1,.82.09,2.35,2.35,0,0,1,.73.29,1.59,1.59,0,0,1,.52.51,1.41,1.41,0,0,1,.2.76Zm-1.25-1.58a1.51,1.51,0,0,1-.7.23q-.42,0-.83.12a2.66,2.66,0,0,0-.38.09,1.15,1.15,0,0,0-.33.16.74.74,0,0,0-.23.27.94.94,0,0,0-.08.41.53.53,0,0,0,.12.35.87.87,0,0,0,.29.23,1.34,1.34,0,0,0,.37.12l.37,0a2,2,0,0,0,.45-.06,1.49,1.49,0,0,0,.46-.19,1.2,1.2,0,0,0,.36-.33.84.84,0,0,0,.14-.5Z"/><path class="cls-2" d="M76.63,120.79h.95v-1.7h1.25v1.7H80v.93H78.83v3a3.1,3.1,0,0,0,0,.34.6.6,0,0,0,.08.24.37.37,0,0,0,.18.15.89.89,0,0,0,.33,0h.26l.26,0v1l-.41,0-.41,0a2.78,2.78,0,0,1-.8-.09,1.07,1.07,0,0,1-.47-.27,1,1,0,0,1-.23-.46,3.5,3.5,0,0,1-.07-.63v-3.35h-.95Z"/><path class="cls-2" d="M80.89,118.62h1.25v1.19H80.89Zm0,2.16h1.25v5.68H80.89Z"/><path class="cls-2" d="M86.11,126.62a3.09,3.09,0,0,1-1.21-.23,2.57,2.57,0,0,1-.9-.62,2.64,2.64,0,0,1-.56-.94,3.87,3.87,0,0,1,0-2.4,2.64,2.64,0,0,1,.56-.94,2.58,2.58,0,0,1,.9-.62,3.38,3.38,0,0,1,2.43,0,2.58,2.58,0,0,1,.9.62,2.64,2.64,0,0,1,.56.94,3.85,3.85,0,0,1,0,2.4,2.64,2.64,0,0,1-.56.94,2.57,2.57,0,0,1-.9.62A3.09,3.09,0,0,1,86.11,126.62Zm0-1a1.43,1.43,0,0,0,.72-.18,1.54,1.54,0,0,0,.51-.46,2,2,0,0,0,.29-.64,2.9,2.9,0,0,0,0-1.46,2,2,0,0,0-.29-.64,1.57,1.57,0,0,0-.51-.46,1.58,1.58,0,0,0-1.45,0,1.55,1.55,0,0,0-.5.46,1.93,1.93,0,0,0-.29.64,2.87,2.87,0,0,0,0,1.46,2,2,0,0,0,.29.64,1.53,1.53,0,0,0,.5.46A1.43,1.43,0,0,0,86.11,125.63Z"/><path class="cls-2" d="M90,120.79H91.2v.83l0,0a2.11,2.11,0,0,1,.75-.74,2,2,0,0,1,1-.27,2.12,2.12,0,0,1,1.47.48,1.85,1.85,0,0,1,.54,1.45v3.9H93.75V122.9a1.54,1.54,0,0,0-.29-1,1,1,0,0,0-.82-.3,1.36,1.36,0,0,0-.57.12,1.23,1.23,0,0,0-.43.32,1.5,1.5,0,0,0-.28.48,1.72,1.72,0,0,0-.1.58v3.35H90Z"/><path class="cls-2" d="M99.33,118.62h5.41v1.19h-4v2.05h3.55V123H100.7v3.48H99.33Z"/><path class="cls-2" d="M105.7,118.62H107v1.19H105.7Zm0,2.16H107v5.68H105.7Z"/><path class="cls-2" d="M108.31,120.79h1.18v1.1h0a1.27,1.27,0,0,1,.21-.45,2.11,2.11,0,0,1,.38-.4,2,2,0,0,1,.5-.29,1.5,1.5,0,0,1,.56-.11h.3l.17,0v1.21l-.27,0-.27,0a1.43,1.43,0,0,0-.6.13,1.37,1.37,0,0,0-.49.37,1.82,1.82,0,0,0-.33.61,2.62,2.62,0,0,0-.12.83v2.7h-1.25Z"/><path class="cls-2" d="M113.16,124a2.17,2.17,0,0,0,.09.64,1.57,1.57,0,0,0,.28.54,1.34,1.34,0,0,0,.47.37,1.56,1.56,0,0,0,.68.14,1.5,1.5,0,0,0,.88-.24,1.4,1.4,0,0,0,.5-.71h1.19a2.36,2.36,0,0,1-.92,1.43,2.5,2.5,0,0,1-.76.37,3.08,3.08,0,0,1-.88.13,3,3,0,0,1-1.19-.22,2.45,2.45,0,0,1-.87-.61,2.61,2.61,0,0,1-.54-.94,3.86,3.86,0,0,1-.18-1.21,3.4,3.4,0,0,1,.19-1.15,2.93,2.93,0,0,1,.55-1,2.58,2.58,0,0,1,2-.9,2.54,2.54,0,0,1,1.2.28,2.64,2.64,0,0,1,.88.74,3,3,0,0,1,.51,1.06,3.27,3.27,0,0,1,.08,1.24Zm2.92-.82a2,2,0,0,0-.13-.57,1.49,1.49,0,0,0-.29-.48,1.41,1.41,0,0,0-.44-.33,1.29,1.29,0,0,0-.58-.13,1.5,1.5,0,0,0-.6.12,1.37,1.37,0,0,0-.46.32,1.58,1.58,0,0,0-.31.48,1.67,1.67,0,0,0-.13.59Z"/><path class="cls-2" d="M117.77,120.79h1.33L120.2,125h0l1.07-4.24h1.26l1,4.24h0l1.15-4.24H126l-1.78,5.68H123l-1.05-4.22h0l-1,4.22h-1.32Z"/><path class="cls-2" d="M131.58,125.2a.65.65,0,0,0,.06.33.25.25,0,0,0,.24.1H132l.18,0v.87l-.17,0-.21,0-.22,0h-.19a1.21,1.21,0,0,1-.64-.15.77.77,0,0,1-.33-.54,2.22,2.22,0,0,1-.92.53,3.62,3.62,0,0,1-1,.16,2.57,2.57,0,0,1-.74-.1,1.92,1.92,0,0,1-.62-.31,1.48,1.48,0,0,1-.43-.52,1.59,1.59,0,0,1-.16-.73,1.7,1.7,0,0,1,.19-.86,1.43,1.43,0,0,1,.51-.52,2.28,2.28,0,0,1,.7-.27q.39-.08.79-.13a6.46,6.46,0,0,1,.65-.09,3,3,0,0,0,.54-.09.84.84,0,0,0,.37-.2.56.56,0,0,0,.14-.41.64.64,0,0,0-.12-.4.77.77,0,0,0-.29-.24,1.25,1.25,0,0,0-.38-.11l-.4,0a1.57,1.57,0,0,0-.87.22.85.85,0,0,0-.38.68h-1.25a1.87,1.87,0,0,1,.26-.91,1.81,1.81,0,0,1,.59-.58,2.4,2.4,0,0,1,.81-.31,4.79,4.79,0,0,1,.92-.09,3.89,3.89,0,0,1,.82.09,2.35,2.35,0,0,1,.73.29,1.58,1.58,0,0,1,.52.51,1.4,1.4,0,0,1,.2.76Zm-1.25-1.58a1.52,1.52,0,0,1-.7.23q-.42,0-.83.12a2.63,2.63,0,0,0-.38.09,1.16,1.16,0,0,0-.33.16.73.73,0,0,0-.22.27.94.94,0,0,0-.08.41.52.52,0,0,0,.12.35.86.86,0,0,0,.29.23,1.33,1.33,0,0,0,.37.12l.37,0a2,2,0,0,0,.45-.06,1.49,1.49,0,0,0,.46-.19,1.21,1.21,0,0,0,.36-.33.85.85,0,0,0,.14-.5Z"/><path class="cls-2" d="M133,118.62h1.25v7.84H133Z"/><path class="cls-2" d="M135.61,118.62h1.25v7.84h-1.25Z"/></g></svg>