<?xml version="1.0" encoding="utf-8"?>
<!-- Generator: Adobe Illustrator 22.1.0, SVG Export Plug-In . SVG Version: 6.00 Build 0)  -->
<svg version="1.1" id="Layer_1" xmlns="http://www.w3.org/2000/svg" xmlns:xlink="http://www.w3.org/1999/xlink" x="0px" y="0px"
	 viewBox="0 0 175.7 175.7" style="enable-background:new 0 0 175.7 175.7;" xml:space="preserve">
<style type="text/css">
	.st0{fill:#0088CE;}
	.st1{fill:#FFFFFF;}
	.st2{enable-background:new    ;}
</style>
<title>element_secondary_primary_fw-cloudgen</title>
<g id="Spam_Firewall">
	<rect class="st0" width="175.7" height="175.7"/>
</g>
<path class="st1" d="M15.2,27.5h29.3v7.6H24.4v14h18.6v7.5H24.4v21.5h-9.2V27.5z"/>
<path class="st1" d="M60.7,78.1L48.3,27.5h9.8l4.9,23c1.3,6.2,2.5,12.6,3.3,17.7h0.2c0.8-5.3,2.3-11.3,3.7-17.7l5.5-22.9h9.7l5,23.3
	c1.2,6,2.3,11.6,3.1,17.1h0.2c0.9-5.6,2.1-11.3,3.5-17.6l5.3-22.8h9.4L98,78.1h-9.9l-5.3-23.8c-1.3-5.8-2.2-10.6-2.8-16.1h-0.2
	C79,43.7,77.9,49,76.5,54.3l-5.8,23.8H60.7z"/>
<g class="st2">
	<path class="st1" d="M18.6,123.1c0.4,0,0.8,0,1.1,0.1c0.4,0.1,0.7,0.2,0.9,0.4s0.5,0.4,0.6,0.7c0.2,0.3,0.2,0.6,0.2,1.1
		c0,0.2,0,0.5-0.1,0.7c-0.1,0.2-0.2,0.4-0.3,0.6c-0.1,0.2-0.3,0.3-0.5,0.5c-0.2,0.1-0.4,0.2-0.6,0.3v0c0.6,0.1,1.1,0.3,1.4,0.7
		c0.4,0.4,0.5,0.9,0.5,1.5c0,0.1,0,0.3,0,0.5c0,0.2-0.1,0.4-0.2,0.6s-0.2,0.4-0.3,0.6c-0.1,0.2-0.3,0.4-0.6,0.5
		c-0.2,0.1-0.5,0.3-0.9,0.3c-0.4,0.1-0.8,0.1-1.3,0.1h-3.9v-9.2H18.6z M18.6,127.1c0.4,0,0.7,0,0.9-0.1c0.3-0.1,0.5-0.2,0.6-0.3
		c0.2-0.1,0.3-0.3,0.4-0.5c0.1-0.2,0.1-0.4,0.1-0.6c0-1.1-0.7-1.7-2.1-1.7h-3v3.3H18.6z M18.6,131.5c0.3,0,0.6,0,0.9-0.1
		c0.3-0.1,0.5-0.2,0.8-0.3c0.2-0.1,0.4-0.3,0.5-0.6c0.1-0.2,0.2-0.6,0.2-0.9c0-0.6-0.2-1-0.6-1.3s-1-0.4-1.8-0.4h-3v3.7H18.6z"/>
</g>
<g class="st2">
	<path class="st1" d="M23.3,126.7c0.1-0.3,0.3-0.5,0.6-0.7s0.5-0.3,0.8-0.4c0.3-0.1,0.7-0.1,1.1-0.1c0.3,0,0.6,0,0.9,0.1
		c0.3,0.1,0.6,0.2,0.8,0.3s0.4,0.4,0.6,0.7c0.1,0.3,0.2,0.6,0.2,1.1v3.5c0,0.3,0.2,0.5,0.5,0.5c0.1,0,0.2,0,0.3-0.1v0.7
		c-0.1,0-0.2,0-0.3,0c-0.1,0-0.2,0-0.3,0c-0.2,0-0.4,0-0.5-0.1c-0.1-0.1-0.2-0.1-0.3-0.2c-0.1-0.1-0.1-0.2-0.1-0.4s0-0.3,0-0.5h0
		c-0.1,0.2-0.3,0.4-0.4,0.6c-0.1,0.2-0.3,0.3-0.5,0.4c-0.2,0.1-0.4,0.2-0.6,0.3c-0.2,0.1-0.5,0.1-0.8,0.1c-0.3,0-0.6,0-0.9-0.1
		c-0.3-0.1-0.5-0.2-0.7-0.3c-0.2-0.2-0.4-0.4-0.5-0.6s-0.2-0.5-0.2-0.9c0-0.5,0.1-0.8,0.3-1.1c0.2-0.3,0.5-0.5,0.8-0.6
		c0.3-0.1,0.7-0.2,1.1-0.3c0.4-0.1,0.9-0.1,1.3-0.2c0.2,0,0.3,0,0.5-0.1s0.2-0.1,0.3-0.1c0.1-0.1,0.2-0.2,0.2-0.3
		c0-0.1,0.1-0.3,0.1-0.4c0-0.3,0-0.5-0.1-0.7s-0.2-0.3-0.4-0.4c-0.2-0.1-0.3-0.2-0.6-0.2c-0.2,0-0.4-0.1-0.7-0.1
		c-0.5,0-0.9,0.1-1.3,0.4c-0.3,0.2-0.5,0.6-0.5,1.2h-0.8C23.1,127.3,23.2,126.9,23.3,126.7z M27.4,128.6c-0.1,0.1-0.2,0.2-0.3,0.2
		c-0.1,0-0.3,0.1-0.4,0.1c-0.3,0.1-0.7,0.1-1.1,0.2s-0.7,0.1-1,0.2c-0.3,0.1-0.5,0.2-0.7,0.4s-0.3,0.4-0.3,0.8c0,0.2,0,0.4,0.1,0.5
		c0.1,0.2,0.2,0.3,0.3,0.4s0.3,0.2,0.5,0.3c0.2,0.1,0.4,0.1,0.6,0.1c0.3,0,0.6,0,0.9-0.1c0.3-0.1,0.5-0.2,0.7-0.4
		c0.2-0.2,0.4-0.4,0.5-0.7c0.1-0.3,0.2-0.5,0.2-0.9L27.4,128.6L27.4,128.6z"/>
</g>
<g class="st2">
	<path class="st1" d="M30.6,125.6v1.6h0c0.2-0.5,0.5-1,1-1.2c0.4-0.3,0.9-0.4,1.5-0.4v0.8c-0.4,0-0.7,0-1,0.1
		c-0.3,0.1-0.6,0.3-0.8,0.5c-0.2,0.2-0.4,0.5-0.5,0.8c-0.1,0.3-0.2,0.6-0.2,1v3.5h-0.8v-6.6H30.6z"/>
</g>
<g class="st2">
	<path class="st1" d="M34.7,125.6v1.6h0c0.2-0.5,0.5-1,1-1.2c0.4-0.3,0.9-0.4,1.5-0.4v0.8c-0.4,0-0.7,0-1,0.1
		c-0.3,0.1-0.6,0.3-0.8,0.5c-0.2,0.2-0.4,0.5-0.5,0.8c-0.1,0.3-0.2,0.6-0.2,1v3.5H34v-6.6H34.7z"/>
</g>
<g class="st2">
	<path class="st1" d="M38.1,126.7c0.1-0.3,0.3-0.5,0.6-0.7s0.5-0.3,0.8-0.4c0.3-0.1,0.7-0.1,1.1-0.1c0.3,0,0.6,0,0.9,0.1
		c0.3,0.1,0.6,0.2,0.8,0.3s0.4,0.4,0.6,0.7c0.1,0.3,0.2,0.6,0.2,1.1v3.5c0,0.3,0.2,0.5,0.5,0.5c0.1,0,0.2,0,0.3-0.1v0.7
		c-0.1,0-0.2,0-0.3,0c-0.1,0-0.2,0-0.3,0c-0.2,0-0.4,0-0.5-0.1c-0.1-0.1-0.2-0.1-0.3-0.2c-0.1-0.1-0.1-0.2-0.1-0.4s0-0.3,0-0.5h0
		c-0.1,0.2-0.3,0.4-0.4,0.6c-0.1,0.2-0.3,0.3-0.5,0.4c-0.2,0.1-0.4,0.2-0.6,0.3c-0.2,0.1-0.5,0.1-0.8,0.1c-0.3,0-0.6,0-0.9-0.1
		c-0.3-0.1-0.5-0.2-0.7-0.3c-0.2-0.2-0.4-0.4-0.5-0.6s-0.2-0.5-0.2-0.9c0-0.5,0.1-0.8,0.3-1.1c0.2-0.3,0.5-0.5,0.8-0.6
		c0.3-0.1,0.7-0.2,1.1-0.3c0.4-0.1,0.9-0.1,1.3-0.2c0.2,0,0.3,0,0.5-0.1s0.2-0.1,0.3-0.1c0.1-0.1,0.2-0.2,0.2-0.3
		c0-0.1,0.1-0.3,0.1-0.4c0-0.3,0-0.5-0.1-0.7s-0.2-0.3-0.4-0.4c-0.2-0.1-0.3-0.2-0.6-0.2c-0.2,0-0.4-0.1-0.7-0.1
		c-0.5,0-0.9,0.1-1.3,0.4c-0.3,0.2-0.5,0.6-0.5,1.2h-0.8C37.9,127.3,38,126.9,38.1,126.7z M42.2,128.6c-0.1,0.1-0.2,0.2-0.3,0.2
		c-0.1,0-0.3,0.1-0.4,0.1c-0.3,0.1-0.7,0.1-1.1,0.2s-0.7,0.1-1,0.2c-0.3,0.1-0.5,0.2-0.7,0.4s-0.3,0.4-0.3,0.8c0,0.2,0,0.4,0.1,0.5
		c0.1,0.2,0.2,0.3,0.3,0.4s0.3,0.2,0.5,0.3c0.2,0.1,0.4,0.1,0.6,0.1c0.3,0,0.6,0,0.9-0.1c0.3-0.1,0.5-0.2,0.7-0.4
		c0.2-0.2,0.4-0.4,0.5-0.7c0.1-0.3,0.2-0.5,0.2-0.9L42.2,128.6L42.2,128.6z"/>
</g>
<g class="st2">
	<path class="st1" d="M48.6,126.5c-0.3-0.3-0.7-0.4-1.3-0.4c-0.4,0-0.7,0.1-1,0.2s-0.5,0.4-0.7,0.6s-0.3,0.6-0.4,0.9
		c-0.1,0.3-0.1,0.7-0.1,1c0,0.4,0,0.7,0.1,1c0.1,0.3,0.2,0.6,0.4,0.9s0.4,0.5,0.7,0.6s0.6,0.2,1,0.2c0.2,0,0.5,0,0.7-0.1
		c0.2-0.1,0.4-0.2,0.6-0.4c0.2-0.2,0.3-0.4,0.4-0.6c0.1-0.2,0.2-0.5,0.2-0.8h0.8c-0.1,0.8-0.4,1.4-0.9,1.9c-0.5,0.4-1.1,0.7-1.9,0.7
		c-0.5,0-1-0.1-1.3-0.3c-0.4-0.2-0.7-0.4-1-0.8c-0.3-0.3-0.5-0.7-0.6-1.1s-0.2-0.9-0.2-1.4c0-0.5,0.1-0.9,0.2-1.4s0.3-0.8,0.6-1.1
		c0.3-0.3,0.6-0.6,1-0.8c0.4-0.2,0.8-0.3,1.3-0.3c0.7,0,1.3,0.2,1.8,0.6s0.8,0.9,0.9,1.7h-0.8C49.1,127.2,48.9,126.8,48.6,126.5z"/>
</g>
<g class="st2">
	<path class="st1" d="M55.8,132.3v-1.2h0c-0.2,0.4-0.5,0.8-0.9,1c-0.4,0.2-0.9,0.4-1.4,0.4c-0.4,0-0.8-0.1-1.1-0.2
		c-0.3-0.1-0.5-0.3-0.7-0.5c-0.2-0.2-0.3-0.5-0.4-0.8c-0.1-0.3-0.1-0.7-0.1-1.1v-4.3H52v4.3c0,0.6,0.2,1.1,0.4,1.4
		c0.3,0.3,0.7,0.5,1.4,0.5c0.4,0,0.7-0.1,0.9-0.2s0.5-0.3,0.6-0.6c0.2-0.2,0.3-0.5,0.4-0.9c0.1-0.3,0.1-0.7,0.1-1v-3.5h0.8v6.6H55.8
		z"/>
</g>
<g class="st2">
	<path class="st1" d="M63.2,132.3V131h0c-0.1,0.2-0.2,0.4-0.4,0.6c-0.2,0.2-0.4,0.3-0.6,0.5c-0.2,0.1-0.4,0.2-0.7,0.3
		c-0.2,0.1-0.5,0.1-0.7,0.1c-0.5,0-0.9-0.1-1.3-0.3c-0.4-0.2-0.7-0.4-0.9-0.8c-0.2-0.3-0.4-0.7-0.6-1.1c-0.1-0.4-0.2-0.9-0.2-1.3
		c0-0.5,0.1-0.9,0.2-1.3c0.1-0.4,0.3-0.8,0.6-1.1c0.2-0.3,0.6-0.6,0.9-0.8c0.4-0.2,0.8-0.3,1.3-0.3c0.2,0,0.5,0,0.7,0.1
		s0.5,0.2,0.7,0.3c0.2,0.1,0.4,0.3,0.5,0.5c0.2,0.2,0.3,0.4,0.4,0.6h0v-3.8h0.8v9.2H63.2z M58.7,130c0.1,0.3,0.2,0.6,0.4,0.9
		s0.4,0.5,0.7,0.7c0.3,0.2,0.6,0.2,1,0.2c0.4,0,0.8-0.1,1.1-0.2c0.3-0.2,0.5-0.4,0.7-0.7c0.2-0.3,0.3-0.6,0.4-0.9s0.1-0.7,0.1-1
		c0-0.3,0-0.7-0.1-1s-0.2-0.6-0.4-0.9c-0.2-0.3-0.4-0.5-0.7-0.7c-0.3-0.2-0.7-0.2-1.1-0.2c-0.4,0-0.7,0.1-1,0.2
		c-0.3,0.2-0.5,0.4-0.7,0.7s-0.3,0.6-0.4,0.9s-0.1,0.7-0.1,1C58.6,129.3,58.7,129.6,58.7,130z"/>
</g>
<g class="st2">
	<path class="st1" d="M65.6,126.7c0.1-0.3,0.3-0.5,0.6-0.7s0.5-0.3,0.8-0.4c0.3-0.1,0.7-0.1,1.1-0.1c0.3,0,0.6,0,0.9,0.1
		c0.3,0.1,0.6,0.2,0.8,0.3s0.4,0.4,0.6,0.7c0.1,0.3,0.2,0.6,0.2,1.1v3.5c0,0.3,0.2,0.5,0.5,0.5c0.1,0,0.2,0,0.3-0.1v0.7
		c-0.1,0-0.2,0-0.3,0c-0.1,0-0.2,0-0.3,0c-0.2,0-0.4,0-0.5-0.1c-0.1-0.1-0.2-0.1-0.3-0.2c-0.1-0.1-0.1-0.2-0.1-0.4s0-0.3,0-0.5h0
		c-0.1,0.2-0.3,0.4-0.4,0.6c-0.1,0.2-0.3,0.3-0.5,0.4c-0.2,0.1-0.4,0.2-0.6,0.3c-0.2,0.1-0.5,0.1-0.8,0.1c-0.3,0-0.6,0-0.9-0.1
		c-0.3-0.1-0.5-0.2-0.7-0.3c-0.2-0.2-0.4-0.4-0.5-0.6s-0.2-0.5-0.2-0.9c0-0.5,0.1-0.8,0.3-1.1c0.2-0.3,0.5-0.5,0.8-0.6
		c0.3-0.1,0.7-0.2,1.1-0.3c0.4-0.1,0.9-0.1,1.3-0.2c0.2,0,0.3,0,0.5-0.1s0.2-0.1,0.3-0.1c0.1-0.1,0.2-0.2,0.2-0.3
		c0-0.1,0.1-0.3,0.1-0.4c0-0.3,0-0.5-0.1-0.7s-0.2-0.3-0.4-0.4c-0.2-0.1-0.3-0.2-0.6-0.2c-0.2,0-0.4-0.1-0.7-0.1
		c-0.5,0-0.9,0.1-1.3,0.4c-0.3,0.2-0.5,0.6-0.5,1.2h-0.8C65.4,127.3,65.5,126.9,65.6,126.7z M69.7,128.6c-0.1,0.1-0.2,0.2-0.3,0.2
		c-0.1,0-0.3,0.1-0.4,0.1c-0.3,0.1-0.7,0.1-1.1,0.2s-0.7,0.1-1,0.2c-0.3,0.1-0.5,0.2-0.7,0.4s-0.3,0.4-0.3,0.8c0,0.2,0,0.4,0.1,0.5
		c0.1,0.2,0.2,0.3,0.3,0.4s0.3,0.2,0.5,0.3c0.2,0.1,0.4,0.1,0.6,0.1c0.3,0,0.6,0,0.9-0.1c0.3-0.1,0.5-0.2,0.7-0.4
		c0.2-0.2,0.4-0.4,0.5-0.7c0.1-0.3,0.2-0.5,0.2-0.9L69.7,128.6L69.7,128.6z"/>
</g>
<g class="st2">
	<path class="st1" d="M21,141.9c-0.1-0.3-0.2-0.5-0.3-0.7c-0.1-0.2-0.3-0.4-0.5-0.6c-0.2-0.2-0.4-0.3-0.7-0.4s-0.5-0.1-0.9-0.1
		c-0.5,0-0.9,0.1-1.3,0.3c-0.4,0.2-0.6,0.5-0.9,0.8s-0.4,0.7-0.5,1.1s-0.2,0.8-0.2,1.3s0.1,0.9,0.2,1.3s0.3,0.8,0.5,1.1
		s0.5,0.6,0.9,0.8c0.4,0.2,0.8,0.3,1.3,0.3c0.4,0,0.7-0.1,1-0.2s0.5-0.3,0.7-0.5c0.2-0.2,0.4-0.5,0.5-0.8c0.1-0.3,0.2-0.6,0.2-0.9
		h1.6c0,0.5-0.2,1.1-0.4,1.5c-0.2,0.5-0.5,0.8-0.8,1.2s-0.7,0.6-1.2,0.8c-0.5,0.2-1,0.3-1.5,0.3c-0.7,0-1.3-0.1-1.8-0.4
		c-0.5-0.3-1-0.6-1.4-1c-0.4-0.4-0.7-0.9-0.9-1.5c-0.2-0.6-0.3-1.2-0.3-1.9c0-0.7,0.1-1.3,0.3-1.9c0.2-0.6,0.5-1.1,0.9-1.5
		c0.4-0.4,0.8-0.8,1.4-1c0.5-0.3,1.2-0.4,1.8-0.4c0.5,0,1,0.1,1.5,0.2s0.9,0.3,1.2,0.6c0.3,0.3,0.6,0.6,0.8,1
		c0.2,0.4,0.3,0.8,0.4,1.3H21z"/>
</g>
<g class="st2">
	<path class="st1" d="M23.9,138.9h1.5v9.2h-1.5V138.9z"/>
	<path class="st1" d="M30,148.3c-0.5,0-1-0.1-1.4-0.3c-0.4-0.2-0.8-0.4-1.1-0.7s-0.5-0.7-0.7-1.1s-0.2-0.9-0.2-1.4
		c0-0.5,0.1-1,0.2-1.4s0.4-0.8,0.7-1.1s0.6-0.6,1.1-0.7c0.4-0.2,0.9-0.3,1.4-0.3s1,0.1,1.4,0.3c0.4,0.2,0.8,0.4,1.1,0.7
		s0.5,0.7,0.7,1.1s0.2,0.9,0.2,1.4c0,0.5-0.1,1-0.2,1.4s-0.4,0.8-0.7,1.1s-0.6,0.6-1.1,0.7C31,148.2,30.6,148.3,30,148.3z M30,147.1
		c0.3,0,0.6-0.1,0.8-0.2c0.2-0.1,0.4-0.3,0.6-0.5c0.2-0.2,0.3-0.5,0.3-0.8s0.1-0.6,0.1-0.9c0-0.3,0-0.6-0.1-0.8s-0.2-0.5-0.3-0.8
		s-0.4-0.4-0.6-0.5c-0.2-0.1-0.5-0.2-0.8-0.2s-0.6,0.1-0.8,0.2c-0.2,0.1-0.4,0.3-0.6,0.5s-0.3,0.5-0.3,0.8s-0.1,0.6-0.1,0.8
		c0,0.3,0,0.6,0.1,0.9s0.2,0.5,0.3,0.8c0.2,0.2,0.4,0.4,0.6,0.5C29.4,147.1,29.7,147.1,30,147.1z"/>
</g>
<g class="st2">
	<path class="st1" d="M40.4,148.1h-1.4v-0.9h0c-0.2,0.3-0.4,0.6-0.8,0.8c-0.4,0.2-0.7,0.3-1.1,0.3c-0.9,0-1.5-0.2-1.9-0.6
		c-0.4-0.4-0.6-1.1-0.6-2v-4.2H36v4.1c0,0.6,0.1,1,0.3,1.2c0.2,0.2,0.5,0.4,0.9,0.4c0.3,0,0.6,0,0.8-0.1c0.2-0.1,0.4-0.2,0.5-0.4
		c0.1-0.2,0.2-0.3,0.3-0.6c0.1-0.2,0.1-0.5,0.1-0.7v-3.9h1.5V148.1z"/>
	<path class="st1" d="M48.2,148.1h-1.4v-0.9h0c-0.2,0.4-0.5,0.7-0.9,0.8c-0.4,0.2-0.8,0.2-1.2,0.2c-0.5,0-1-0.1-1.4-0.3
		c-0.4-0.2-0.7-0.4-1-0.8s-0.5-0.7-0.6-1.1c-0.1-0.4-0.2-0.9-0.2-1.4c0-0.6,0.1-1.1,0.2-1.6c0.2-0.4,0.4-0.8,0.6-1.1
		c0.3-0.3,0.6-0.5,0.9-0.6c0.3-0.1,0.7-0.2,1.1-0.2c0.2,0,0.4,0,0.6,0.1c0.2,0,0.4,0.1,0.6,0.2s0.4,0.2,0.5,0.3
		c0.2,0.1,0.3,0.3,0.4,0.5h0v-3.4h1.5V148.1z M43.1,144.9c0,0.3,0,0.6,0.1,0.8s0.2,0.5,0.3,0.7c0.1,0.2,0.3,0.4,0.6,0.5
		c0.2,0.1,0.5,0.2,0.8,0.2c0.3,0,0.6-0.1,0.8-0.2c0.2-0.1,0.4-0.3,0.6-0.5c0.1-0.2,0.3-0.5,0.3-0.8c0.1-0.3,0.1-0.6,0.1-0.9
		c0-0.7-0.2-1.3-0.5-1.7c-0.3-0.4-0.8-0.6-1.3-0.6c-0.3,0-0.6,0.1-0.9,0.2s-0.4,0.3-0.6,0.6c-0.1,0.2-0.3,0.5-0.3,0.8
		C43.1,144.3,43.1,144.6,43.1,144.9z"/>
</g>
<g class="st2">
	<path class="st1" d="M58.1,148.1h-1l-0.2-1.1c-0.4,0.5-0.9,0.8-1.3,1c-0.4,0.2-0.9,0.3-1.5,0.3c-0.7,0-1.3-0.1-1.8-0.4
		c-0.5-0.3-1-0.6-1.4-1c-0.4-0.4-0.7-0.9-0.9-1.5c-0.2-0.6-0.3-1.2-0.3-1.9c0-0.7,0.1-1.3,0.3-1.9c0.2-0.6,0.5-1.1,0.9-1.5
		c0.4-0.4,0.8-0.8,1.4-1c0.5-0.3,1.2-0.4,1.8-0.4c0.5,0,1,0.1,1.4,0.2s0.9,0.3,1.2,0.6c0.4,0.3,0.6,0.6,0.9,1s0.4,0.8,0.4,1.4h-1.6
		c0-0.3-0.1-0.6-0.3-0.8c-0.1-0.2-0.3-0.4-0.5-0.6c-0.2-0.2-0.5-0.3-0.7-0.3c-0.3-0.1-0.5-0.1-0.8-0.1c-0.5,0-0.9,0.1-1.3,0.3
		c-0.4,0.2-0.6,0.5-0.9,0.8c-0.2,0.3-0.4,0.7-0.5,1.1c-0.1,0.4-0.2,0.8-0.2,1.3s0.1,0.9,0.2,1.3c0.1,0.4,0.3,0.8,0.5,1.1
		c0.2,0.3,0.5,0.6,0.9,0.8c0.4,0.2,0.8,0.3,1.3,0.3c0.4,0,0.8,0,1.1-0.2c0.3-0.1,0.6-0.3,0.8-0.5c0.2-0.2,0.4-0.5,0.5-0.8
		c0.1-0.3,0.2-0.7,0.2-1.1h-2.4v-1.2h3.9V148.1z"/>
</g>
<g class="st2">
	<path class="st1" d="M60.8,145.2c0,0.3,0,0.5,0.1,0.7s0.2,0.5,0.3,0.6c0.1,0.2,0.3,0.3,0.6,0.4c0.2,0.1,0.5,0.2,0.8,0.2
		c0.4,0,0.8-0.1,1-0.3s0.5-0.5,0.6-0.8h1.4c-0.1,0.4-0.2,0.7-0.4,1c-0.2,0.3-0.4,0.5-0.7,0.7c-0.3,0.2-0.6,0.3-0.9,0.4
		s-0.7,0.1-1,0.1c-0.5,0-1-0.1-1.4-0.3c-0.4-0.2-0.7-0.4-1-0.7c-0.3-0.3-0.5-0.7-0.6-1.1c-0.1-0.4-0.2-0.9-0.2-1.4
		c0-0.5,0.1-0.9,0.2-1.3c0.1-0.4,0.4-0.8,0.6-1.1c0.3-0.3,0.6-0.6,1-0.8c0.4-0.2,0.8-0.3,1.3-0.3c0.5,0,1,0.1,1.4,0.3
		c0.4,0.2,0.8,0.5,1,0.9s0.5,0.8,0.6,1.2c0.1,0.5,0.2,0.9,0.1,1.4H60.8z M64.2,144.2c0-0.2-0.1-0.5-0.1-0.7
		c-0.1-0.2-0.2-0.4-0.3-0.6c-0.1-0.2-0.3-0.3-0.5-0.4c-0.2-0.1-0.4-0.1-0.7-0.1c-0.3,0-0.5,0-0.7,0.1c-0.2,0.1-0.4,0.2-0.5,0.4
		c-0.2,0.2-0.3,0.3-0.4,0.6c-0.1,0.2-0.1,0.4-0.1,0.7H64.2z"/>
</g>
<g class="st2">
	<path class="st1" d="M66.9,141.5h1.4v1l0,0c0.2-0.4,0.5-0.7,0.9-0.9c0.4-0.2,0.8-0.3,1.2-0.3c0.7,0,1.3,0.2,1.7,0.6
		c0.4,0.4,0.6,0.9,0.6,1.7v4.6h-1.5v-4.2c0-0.5-0.1-0.9-0.3-1.1c-0.2-0.2-0.5-0.4-1-0.4c-0.2,0-0.5,0-0.7,0.1s-0.4,0.2-0.5,0.4
		c-0.1,0.2-0.2,0.3-0.3,0.6c-0.1,0.2-0.1,0.4-0.1,0.7v3.9h-1.5V141.5z"/>
</g>
<g class="st2">
	<path class="st1" d="M78,138.9h6.3v1.4h-4.7v2.4h4.2v1.3h-4.2v4.1H78V138.9z"/>
</g>
<g class="st2">
	<path class="st1" d="M85.4,138.9h1.5v1.4h-1.5V138.9z M85.4,141.5h1.5v6.6h-1.5V141.5z"/>
</g>
<g class="st2">
	<path class="st1" d="M88.4,141.5h1.4v1.3h0c0-0.2,0.1-0.4,0.3-0.5c0.1-0.2,0.3-0.3,0.5-0.5s0.4-0.3,0.6-0.3s0.4-0.1,0.7-0.1
		c0.2,0,0.3,0,0.4,0c0.1,0,0.1,0,0.2,0v1.4c-0.1,0-0.2,0-0.3,0c-0.1,0-0.2,0-0.3,0c-0.2,0-0.5,0-0.7,0.1s-0.4,0.2-0.6,0.4
		c-0.2,0.2-0.3,0.4-0.4,0.7c-0.1,0.3-0.1,0.6-0.1,1v3.2h-1.5V141.5z"/>
</g>
<g class="st2">
	<path class="st1" d="M94.2,145.2c0,0.3,0,0.5,0.1,0.7c0.1,0.2,0.2,0.5,0.3,0.6c0.1,0.2,0.3,0.3,0.6,0.4c0.2,0.1,0.5,0.2,0.8,0.2
		c0.4,0,0.8-0.1,1-0.3s0.5-0.5,0.6-0.8H99c-0.1,0.4-0.2,0.7-0.4,1c-0.2,0.3-0.4,0.5-0.7,0.7c-0.3,0.2-0.6,0.3-0.9,0.4
		s-0.7,0.1-1,0.1c-0.5,0-1-0.1-1.4-0.3c-0.4-0.2-0.7-0.4-1-0.7c-0.3-0.3-0.5-0.7-0.6-1.1c-0.1-0.4-0.2-0.9-0.2-1.4
		c0-0.5,0.1-0.9,0.2-1.3c0.1-0.4,0.4-0.8,0.6-1.1c0.3-0.3,0.6-0.6,1-0.8c0.4-0.2,0.8-0.3,1.3-0.3c0.5,0,1,0.1,1.4,0.3s0.8,0.5,1,0.9
		s0.5,0.8,0.6,1.2c0.1,0.5,0.2,0.9,0.1,1.4H94.2z M97.6,144.2c0-0.2-0.1-0.5-0.1-0.7c-0.1-0.2-0.2-0.4-0.3-0.6
		c-0.1-0.2-0.3-0.3-0.5-0.4c-0.2-0.1-0.4-0.1-0.7-0.1c-0.3,0-0.5,0-0.7,0.1c-0.2,0.1-0.4,0.2-0.5,0.4c-0.2,0.2-0.3,0.3-0.4,0.6
		c-0.1,0.2-0.1,0.4-0.1,0.7H97.6z"/>
</g>
<g class="st2">
	<path class="st1" d="M99.4,141.5h1.6l1.3,5h0l1.2-5h1.5l1.2,5h0l1.4-5h1.5l-2.1,6.6h-1.5l-1.2-4.9h0l-1.2,4.9h-1.5L99.4,141.5z"/>
</g>
<g class="st2">
	<path class="st1" d="M115.4,146.6c0,0.2,0,0.3,0.1,0.4s0.1,0.1,0.3,0.1c0,0,0.1,0,0.2,0c0.1,0,0.1,0,0.2,0v1c-0.1,0-0.1,0-0.2,0.1
		s-0.2,0-0.3,0.1c-0.1,0-0.2,0-0.3,0s-0.2,0-0.2,0c-0.3,0-0.5-0.1-0.7-0.2s-0.3-0.3-0.4-0.6c-0.3,0.3-0.6,0.5-1.1,0.6
		c-0.4,0.1-0.8,0.2-1.2,0.2c-0.3,0-0.6,0-0.9-0.1c-0.3-0.1-0.5-0.2-0.7-0.4c-0.2-0.2-0.4-0.4-0.5-0.6c-0.1-0.2-0.2-0.5-0.2-0.9
		c0-0.4,0.1-0.7,0.2-1c0.1-0.3,0.3-0.5,0.6-0.6c0.2-0.1,0.5-0.3,0.8-0.3s0.6-0.1,0.9-0.1c0.3-0.1,0.5-0.1,0.8-0.1
		c0.2,0,0.5-0.1,0.6-0.1c0.2-0.1,0.3-0.1,0.4-0.2c0.1-0.1,0.2-0.3,0.2-0.5c0-0.2,0-0.3-0.1-0.5c-0.1-0.1-0.2-0.2-0.3-0.3
		s-0.3-0.1-0.4-0.1s-0.3,0-0.5,0c-0.4,0-0.8,0.1-1,0.3s-0.4,0.4-0.4,0.8h-1.5c0-0.4,0.1-0.8,0.3-1.1c0.2-0.3,0.4-0.5,0.7-0.7
		c0.3-0.2,0.6-0.3,0.9-0.4s0.7-0.1,1.1-0.1c0.3,0,0.6,0,1,0.1c0.3,0.1,0.6,0.2,0.9,0.3s0.5,0.4,0.6,0.6c0.2,0.2,0.2,0.5,0.2,0.9
		V146.6z M114,144.8c-0.2,0.1-0.5,0.2-0.8,0.3c-0.3,0-0.7,0.1-1,0.1c-0.2,0-0.3,0.1-0.5,0.1c-0.1,0-0.3,0.1-0.4,0.2
		c-0.1,0.1-0.2,0.2-0.3,0.3s-0.1,0.3-0.1,0.5c0,0.2,0,0.3,0.1,0.4c0.1,0.1,0.2,0.2,0.3,0.3c0.1,0.1,0.3,0.1,0.4,0.1
		c0.2,0,0.3,0,0.4,0c0.2,0,0.3,0,0.5-0.1c0.2,0,0.4-0.1,0.5-0.2c0.2-0.1,0.3-0.2,0.4-0.4c0.1-0.2,0.2-0.4,0.2-0.6V144.8z"/>
</g>
<g class="st2">
	<path class="st1" d="M117.1,138.9h1.5v9.2h-1.5V138.9z"/>
</g>
<g class="st2">
	<path class="st1" d="M120.2,138.9h1.5v9.2h-1.5V138.9z"/>
</g>
</svg>
