<svg id="Layer_1" data-name="Layer 1" xmlns="http://www.w3.org/2000/svg" viewBox="0 0 175.69 175.69"><defs><style>.cls-1{fill:#1388c9;}.cls-2{fill:#fff;}</style></defs><title>element_primary_ess</title><g id="Spam_Firewall" data-name="Spam Firewall"><rect class="cls-1" width="175.69" height="175.69"/></g><path class="cls-2" d="M43.08,55.68H24V70.55H45.34v7.59H14.76V27.51H44.21V35.1H24V48.17H43.08Z"/><path class="cls-2" d="M51.76,68.07A25.31,25.31,0,0,0,64,71.3c5.86,0,9.17-2.77,9.17-6.91,0-3.83-2.56-6.08-8.94-8.41-8.42-3-13.75-7.44-13.75-14.72,0-8.34,6.91-14.57,18-14.57a26.43,26.43,0,0,1,12.1,2.55l-2.18,7.44a22,22,0,0,0-10.14-2.41c-5.86,0-8.34,3.08-8.34,6.09,0,3.9,2.93,5.7,9.69,8.34,8.79,3.3,13,7.73,13,15C82.56,71.91,76.4,79,63.4,79c-5.41,0-11-1.51-13.75-3.23Z"/><path class="cls-2" d="M87.9,68.07a25.35,25.35,0,0,0,12.25,3.23c5.86,0,9.16-2.77,9.16-6.91,0-3.83-2.55-6.08-8.94-8.41C92,53,86.63,48.54,86.63,41.26c0-8.34,6.91-14.57,18-14.57a26.46,26.46,0,0,1,12.1,2.55l-2.18,7.44a22,22,0,0,0-10.14-2.41c-5.86,0-8.34,3.08-8.34,6.09,0,3.9,2.93,5.7,9.69,8.34,8.79,3.3,13,7.73,13,15,0,8.19-6.16,15.25-19.15,15.25-5.41,0-11-1.51-13.75-3.23Z"/><path class="cls-2" d="M18.65,123.09a5.8,5.8,0,0,1,1.11.11,2.93,2.93,0,0,1,.94.37,2,2,0,0,1,.65.7,2.17,2.17,0,0,1,.24,1.07,2.33,2.33,0,0,1-.11.7,2.16,2.16,0,0,1-.33.62,2,2,0,0,1-.5.47,1.87,1.87,0,0,1-.65.27v0a2.15,2.15,0,0,1,1.41.72,2.24,2.24,0,0,1,.53,1.51,3,3,0,0,1,0,.5,2.68,2.68,0,0,1-.15.57,2.45,2.45,0,0,1-.34.57,1.89,1.89,0,0,1-.58.49,3.38,3.38,0,0,1-.9.35,5.33,5.33,0,0,1-1.28.14H14.76v-9.19Zm0,4a3.09,3.09,0,0,0,.91-.12,2,2,0,0,0,.64-.34,1.31,1.31,0,0,0,.39-.49,1.39,1.39,0,0,0,.13-.61c0-1.15-.69-1.72-2.07-1.72h-3v3.28Zm0,4.41a5.43,5.43,0,0,0,.92-.08,2.16,2.16,0,0,0,.78-.31,1.54,1.54,0,0,0,.52-.58,2,2,0,0,0,.2-.92,1.51,1.51,0,0,0-.63-1.33,3,3,0,0,0-1.79-.45h-3v3.67Z"/><path class="cls-2" d="M23.33,126.67a2,2,0,0,1,.56-.7,2.46,2.46,0,0,1,.83-.4,4.35,4.35,0,0,1,1.06-.12,4.27,4.27,0,0,1,.87.08,2.08,2.08,0,0,1,.78.32,1.69,1.69,0,0,1,.57.64,2.3,2.3,0,0,1,.22,1.09v3.53a.42.42,0,0,0,.48.48.51.51,0,0,0,.25-.05v.68l-.25,0-.27,0a1.15,1.15,0,0,1-.5-.09.62.62,0,0,1-.29-.24.82.82,0,0,1-.13-.36,2.29,2.29,0,0,1,0-.47h0a7.09,7.09,0,0,1-.45.57,2.08,2.08,0,0,1-1.13.67,3,3,0,0,1-.84.09,3.46,3.46,0,0,1-.87-.1,2.14,2.14,0,0,1-.71-.35,1.59,1.59,0,0,1-.47-.61,1.91,1.91,0,0,1-.18-.86,1.74,1.74,0,0,1,.31-1.09,2,2,0,0,1,.82-.6,4.75,4.75,0,0,1,1.14-.29l1.3-.16.45-.06a.78.78,0,0,0,.32-.14.67.67,0,0,0,.2-.26,1.1,1.1,0,0,0,.07-.44,1.45,1.45,0,0,0-.14-.67,1,1,0,0,0-.37-.42,1.26,1.26,0,0,0-.55-.21,3.66,3.66,0,0,0-.68-.06,2.09,2.09,0,0,0-1.26.36,1.44,1.44,0,0,0-.51,1.18h-.81A2.5,2.5,0,0,1,23.33,126.67Zm4.05,2a.51.51,0,0,1-.29.21l-.39.09-1.06.16a4.91,4.91,0,0,0-1,.21,2,2,0,0,0-.74.4,1,1,0,0,0-.29.75,1.21,1.21,0,0,0,.13.55,1.3,1.3,0,0,0,.32.41,1.42,1.42,0,0,0,.48.27,1.76,1.76,0,0,0,.55.09,2.91,2.91,0,0,0,.89-.14,2.34,2.34,0,0,0,.74-.42,1.89,1.89,0,0,0,.5-.65,1.93,1.93,0,0,0,.19-.88v-1Z"/><path class="cls-2" d="M30.61,125.64v1.56h0a2.44,2.44,0,0,1,2.5-1.65v.81a2.34,2.34,0,0,0-1,.15,2.19,2.19,0,0,0-1.29,1.26,2.54,2.54,0,0,0-.17,1v3.54h-.82v-6.64Z"/><path class="cls-2" d="M34.72,125.64v1.56h0a2.55,2.55,0,0,1,1-1.25,2.49,2.49,0,0,1,1.55-.4v.81a2.32,2.32,0,0,0-1,.15A2.19,2.19,0,0,0,35,127.77a2.54,2.54,0,0,0-.18,1v3.54H34v-6.64Z"/><path class="cls-2" d="M38.11,126.67a2,2,0,0,1,.56-.7,2.56,2.56,0,0,1,.83-.4,4.35,4.35,0,0,1,1.06-.12,4.27,4.27,0,0,1,.87.08,2.12,2.12,0,0,1,.79.32,1.67,1.67,0,0,1,.56.64,2.3,2.3,0,0,1,.22,1.09v3.53a.42.42,0,0,0,.48.48.58.58,0,0,0,.26-.05v.68l-.26,0-.27,0a1.18,1.18,0,0,1-.5-.09.62.62,0,0,1-.29-.24.82.82,0,0,1-.13-.36,3.38,3.38,0,0,1,0-.47h0a5.34,5.34,0,0,1-.44.57,2.08,2.08,0,0,1-1.13.67,3.08,3.08,0,0,1-.85.09,3.52,3.52,0,0,1-.87-.1,2,2,0,0,1-.7-.35,1.72,1.72,0,0,1-.48-.61,2.06,2.06,0,0,1-.17-.86,1.68,1.68,0,0,1,.31-1.09,1.92,1.92,0,0,1,.81-.6,4.72,4.72,0,0,1,1.15-.29l1.29-.16.45-.06a.73.73,0,0,0,.32-.14.59.59,0,0,0,.2-.26,1.1,1.1,0,0,0,.07-.44,1.45,1.45,0,0,0-.13-.67,1,1,0,0,0-.38-.42,1.22,1.22,0,0,0-.55-.21,3.55,3.55,0,0,0-.67-.06,2,2,0,0,0-1.26.36,1.45,1.45,0,0,0-.52,1.18h-.81A2.88,2.88,0,0,1,38.11,126.67Zm4.06,2a.51.51,0,0,1-.3.21l-.39.09-1.06.16a4.81,4.81,0,0,0-1,.21,1.94,1.94,0,0,0-.74.4,1,1,0,0,0-.29.75,1.19,1.19,0,0,0,.45,1,1.37,1.37,0,0,0,.47.27,1.77,1.77,0,0,0,.56.09,2.84,2.84,0,0,0,.88-.14,2.23,2.23,0,0,0,.74-.42,1.88,1.88,0,0,0,.69-1.53v-1Z"/><path class="cls-2" d="M48.62,126.55a1.78,1.78,0,0,0-1.26-.42,2,2,0,0,0-1,.24,2.08,2.08,0,0,0-.73.65,2.9,2.9,0,0,0-.44.9,3.68,3.68,0,0,0-.15,1,3.62,3.62,0,0,0,.15,1,3.07,3.07,0,0,0,.44.91,2.13,2.13,0,0,0,1.74.89,1.87,1.87,0,0,0,.71-.14,2,2,0,0,0,.59-.4,1.9,1.9,0,0,0,.42-.6,2.09,2.09,0,0,0,.21-.75h.81a3.06,3.06,0,0,1-.89,1.88,2.58,2.58,0,0,1-1.85.67,3.14,3.14,0,0,1-1.34-.27,3,3,0,0,1-1-.75,3.44,3.44,0,0,1-.6-1.12,4.24,4.24,0,0,1-.21-1.35,4.35,4.35,0,0,1,.21-1.36,3.39,3.39,0,0,1,.6-1.11,2.94,2.94,0,0,1,2.33-1,2.87,2.87,0,0,1,1.81.56,2.46,2.46,0,0,1,.88,1.71h-.81A2.24,2.24,0,0,0,48.62,126.55Z"/><path class="cls-2" d="M55.82,132.28v-1.2h0a2.27,2.27,0,0,1-.94,1,2.57,2.57,0,0,1-1.35.35,2.92,2.92,0,0,1-1.08-.17,1.84,1.84,0,0,1-.72-.49,2,2,0,0,1-.4-.79,3.77,3.77,0,0,1-.13-1.05v-4.31H52V130a2.16,2.16,0,0,0,.42,1.36,1.68,1.68,0,0,0,1.35.47,1.73,1.73,0,0,0,.91-.23,1.94,1.94,0,0,0,.61-.6,2.4,2.4,0,0,0,.36-.85,4.07,4.07,0,0,0,.12-1v-3.48h.81v6.64Z"/><path class="cls-2" d="M63.19,132.28V131h0a1.8,1.8,0,0,1-.38.59,2.27,2.27,0,0,1-.57.45,2.65,2.65,0,0,1-.69.29,2.55,2.55,0,0,1-.72.1,3,3,0,0,1-1.32-.27,2.59,2.59,0,0,1-.94-.76A3.35,3.35,0,0,1,58,130.3a4.87,4.87,0,0,1-.18-1.34,5,5,0,0,1,.18-1.35,3.55,3.55,0,0,1,.55-1.12,2.7,2.7,0,0,1,.94-.76,2.86,2.86,0,0,1,1.32-.28,2.9,2.9,0,0,1,.72.09,2.41,2.41,0,0,1,.66.27,2.45,2.45,0,0,1,.55.46,2,2,0,0,1,.37.63h0v-3.81h.81v9.19ZM58.74,130a3,3,0,0,0,.39.91,2.22,2.22,0,0,0,.68.65,1.91,1.91,0,0,0,1,.25,2.24,2.24,0,0,0,1.08-.25,2.16,2.16,0,0,0,.72-.65A2.58,2.58,0,0,0,63,130a4.44,4.44,0,0,0,.12-1,4.31,4.31,0,0,0-.12-1,2.5,2.5,0,0,0-.4-.91,2,2,0,0,0-.72-.65,2.13,2.13,0,0,0-1.08-.25,1.82,1.82,0,0,0-1,.25,2,2,0,0,0-.68.65,2.88,2.88,0,0,0-.39.91,4.31,4.31,0,0,0-.12,1A4.44,4.44,0,0,0,58.74,130Z"/><path class="cls-2" d="M65.63,126.67a2,2,0,0,1,.56-.7,2.46,2.46,0,0,1,.83-.4,4.35,4.35,0,0,1,1.06-.12,4.27,4.27,0,0,1,.87.08,2.19,2.19,0,0,1,.79.32,1.67,1.67,0,0,1,.56.64,2.3,2.3,0,0,1,.22,1.09v3.53a.42.42,0,0,0,.48.48.51.51,0,0,0,.25-.05v.68l-.25,0-.27,0a1.15,1.15,0,0,1-.5-.09.62.62,0,0,1-.29-.24.82.82,0,0,1-.13-.36,2.29,2.29,0,0,1,0-.47h0c-.15.21-.3.4-.44.57a2.24,2.24,0,0,1-.51.42,2,2,0,0,1-.63.25,3,3,0,0,1-.84.09,3.46,3.46,0,0,1-.87-.1,2,2,0,0,1-.7-.35,1.52,1.52,0,0,1-.48-.61,1.91,1.91,0,0,1-.18-.86,1.74,1.74,0,0,1,.31-1.09,2,2,0,0,1,.82-.6,4.72,4.72,0,0,1,1.15-.29l1.29-.16.45-.06a.78.78,0,0,0,.32-.14.59.59,0,0,0,.2-.26,1.1,1.1,0,0,0,.07-.44,1.45,1.45,0,0,0-.14-.67,1,1,0,0,0-.37-.42,1.26,1.26,0,0,0-.55-.21,3.66,3.66,0,0,0-.68-.06,2.09,2.09,0,0,0-1.26.36,1.47,1.47,0,0,0-.51,1.18h-.81A2.67,2.67,0,0,1,65.63,126.67Zm4.05,2a.51.51,0,0,1-.29.21L69,129l-1.06.16a4.91,4.91,0,0,0-1,.21,1.9,1.9,0,0,0-.73.4,1,1,0,0,0-.29.75,1.19,1.19,0,0,0,.45,1,1.29,1.29,0,0,0,.47.27,1.76,1.76,0,0,0,.55.09,2.91,2.91,0,0,0,.89-.14,2.34,2.34,0,0,0,.74-.42,1.89,1.89,0,0,0,.5-.65,1.93,1.93,0,0,0,.19-.88v-1Z"/><path class="cls-2" d="M14.81,139h6.62v1.39h-5v2.4h4.63v1.31H16.42v2.69h5.1v1.39H14.81Z"/><path class="cls-2" d="M23.83,146a1.1,1.1,0,0,0,.49.9,1.84,1.84,0,0,0,1,.26l.47,0a2,2,0,0,0,.49-.12.88.88,0,0,0,.38-.27.64.64,0,0,0,.14-.45.67.67,0,0,0-.21-.47,1.33,1.33,0,0,0-.5-.28,3.92,3.92,0,0,0-.68-.19l-.79-.17a6.55,6.55,0,0,1-.79-.22,2.55,2.55,0,0,1-.68-.34,1.66,1.66,0,0,1-.48-.57,1.74,1.74,0,0,1-.18-.84,1.45,1.45,0,0,1,.26-.9,2.15,2.15,0,0,1,.67-.6,2.9,2.9,0,0,1,.9-.31,5.23,5.23,0,0,1,.94-.09,4.48,4.48,0,0,1,1,.11,2.77,2.77,0,0,1,.85.35,2.26,2.26,0,0,1,.63.64,2.14,2.14,0,0,1,.31.95H26.53a.91.91,0,0,0-.48-.71,2,2,0,0,0-.87-.18l-.37,0a1.59,1.59,0,0,0-.39.1,1,1,0,0,0-.32.2.53.53,0,0,0-.13.36.56.56,0,0,0,.19.44,1.42,1.42,0,0,0,.49.27,3.8,3.8,0,0,0,.69.19l.79.17a7.1,7.1,0,0,1,.79.22,2.61,2.61,0,0,1,.69.34,1.77,1.77,0,0,1,.49.56,1.69,1.69,0,0,1,.18.82,1.78,1.78,0,0,1-.27,1,2,2,0,0,1-.7.67,3.09,3.09,0,0,1-1,.37,4.72,4.72,0,0,1-2.2,0,2.85,2.85,0,0,1-.93-.43,2.25,2.25,0,0,1-.62-.72,2.34,2.34,0,0,1-.24-1Z"/><path class="cls-2" d="M30.58,146a1.1,1.1,0,0,0,.49.9,1.83,1.83,0,0,0,1,.26l.47,0a2,2,0,0,0,.5-.12.94.94,0,0,0,.38-.27.59.59,0,0,0,.13-.45.62.62,0,0,0-.2-.47,1.42,1.42,0,0,0-.5-.28,3.8,3.8,0,0,0-.69-.19l-.78-.17a6.55,6.55,0,0,1-.79-.22,2.55,2.55,0,0,1-.68-.34,1.81,1.81,0,0,1-.49-.57,1.74,1.74,0,0,1-.18-.84,1.46,1.46,0,0,1,.27-.9,2,2,0,0,1,.67-.6,2.9,2.9,0,0,1,.9-.31,5.23,5.23,0,0,1,.94-.09,4.55,4.55,0,0,1,1,.11,2.77,2.77,0,0,1,.85.35,2.07,2.07,0,0,1,.94,1.59H33.28a.91.91,0,0,0-.48-.71,2,2,0,0,0-.87-.18l-.37,0a1.8,1.8,0,0,0-.4.1,1,1,0,0,0-.31.2.48.48,0,0,0-.13.36.56.56,0,0,0,.19.44,1.34,1.34,0,0,0,.49.27,3.92,3.92,0,0,0,.68.19l.8.17a7.1,7.1,0,0,1,.79.22,2.55,2.55,0,0,1,.68.34,1.56,1.56,0,0,1,.49.56,1.58,1.58,0,0,1,.19.82,1.78,1.78,0,0,1-.27,1,2,2,0,0,1-.7.67,3.09,3.09,0,0,1-1,.37,4.68,4.68,0,0,1-1,.12,4.81,4.81,0,0,1-1.17-.14,2.89,2.89,0,0,1-.92-.43,2.25,2.25,0,0,1-.62-.72,2.34,2.34,0,0,1-.24-1Z"/><path class="cls-2" d="M37.31,145.18a2.67,2.67,0,0,0,.11.75,2.1,2.1,0,0,0,.33.63,1.61,1.61,0,0,0,.56.43,2.05,2.05,0,0,0,1.83-.12,1.62,1.62,0,0,0,.58-.83h1.39A2.74,2.74,0,0,1,41,147.72a2.85,2.85,0,0,1-.89.44,3.77,3.77,0,0,1-2.43-.11,2.86,2.86,0,0,1-1-.72,3.07,3.07,0,0,1-.63-1.1,4.55,4.55,0,0,1-.21-1.42,4,4,0,0,1,.22-1.34,3.36,3.36,0,0,1,.65-1.12,3,3,0,0,1,1-.77,3,3,0,0,1,1.33-.28,2.94,2.94,0,0,1,1.41.33,3,3,0,0,1,1,.87,3.67,3.67,0,0,1,.6,1.24,3.86,3.86,0,0,1,.09,1.44Zm3.43-1a2.6,2.6,0,0,0-.15-.67,1.87,1.87,0,0,0-.34-.56,1.48,1.48,0,0,0-.51-.38,1.51,1.51,0,0,0-.68-.15,1.78,1.78,0,0,0-.7.13,1.73,1.73,0,0,0-.54.37,1.85,1.85,0,0,0-.36.57,1.93,1.93,0,0,0-.15.69Z"/><path class="cls-2" d="M43.37,141.48h1.39v1l0,0a2.42,2.42,0,0,1,.87-.87,2.33,2.33,0,0,1,1.2-.31,2.51,2.51,0,0,1,1.72.56,2.18,2.18,0,0,1,.63,1.7v4.57H47.74V144a1.76,1.76,0,0,0-.33-1.14,1.24,1.24,0,0,0-1-.35,1.57,1.57,0,0,0-.67.13,1.45,1.45,0,0,0-.5.37,1.78,1.78,0,0,0-.33.57,2.15,2.15,0,0,0-.11.68v3.92H43.37Z"/><path class="cls-2" d="M50.05,141.48h1.1v-2h1.47v2h1.32v1.09H52.62v3.55c0,.16,0,.29,0,.4a.58.58,0,0,0,.09.28.46.46,0,0,0,.21.18,1.05,1.05,0,0,0,.39.05h.31a1,1,0,0,0,.3-.05v1.14l-.47,0a3.77,3.77,0,0,1-.48,0,3,3,0,0,1-.93-.11,1.18,1.18,0,0,1-.55-.32,1,1,0,0,1-.27-.53,3.83,3.83,0,0,1-.09-.73v-3.93h-1.1Z"/><path class="cls-2" d="M55,139h1.47v1.39H55Zm0,2.53h1.47v6.65H55Z"/><path class="cls-2" d="M63.65,146.65a.71.71,0,0,0,.07.38.3.3,0,0,0,.28.12h.15l.21,0v1l-.2.06-.25.06-.26,0h-.22a1.44,1.44,0,0,1-.75-.18.92.92,0,0,1-.38-.63,2.62,2.62,0,0,1-1.08.62,4.12,4.12,0,0,1-1.22.19,3.1,3.1,0,0,1-.87-.12,2.21,2.21,0,0,1-.72-.36,1.79,1.79,0,0,1-.51-.61,1.9,1.9,0,0,1-.18-.85,2,2,0,0,1,.22-1,1.72,1.72,0,0,1,.6-.6,2.37,2.37,0,0,1,.82-.31,7.06,7.06,0,0,1,.92-.15,5.36,5.36,0,0,1,.76-.11,3.41,3.41,0,0,0,.63-.11.93.93,0,0,0,.44-.24.65.65,0,0,0,.16-.48.79.79,0,0,0-.13-.47,1,1,0,0,0-.34-.27,1.25,1.25,0,0,0-.44-.13l-.46,0a1.84,1.84,0,0,0-1,.25,1,1,0,0,0-.45.8H58a2.21,2.21,0,0,1,.31-1.06,2.07,2.07,0,0,1,.69-.69,2.87,2.87,0,0,1,.94-.36,5.67,5.67,0,0,1,1.09-.1,4.47,4.47,0,0,1,1,.1,2.71,2.71,0,0,1,.86.34,1.84,1.84,0,0,1,.61.6,1.66,1.66,0,0,1,.23.89Zm-1.47-1.85a1.85,1.85,0,0,1-.82.26c-.33,0-.65.08-1,.14a2.46,2.46,0,0,0-.45.11,1.13,1.13,0,0,0-.38.19.84.84,0,0,0-.27.32,1.14,1.14,0,0,0-.1.48.58.58,0,0,0,.15.41.91.91,0,0,0,.34.27,1.53,1.53,0,0,0,.43.13,2.39,2.39,0,0,0,.44,0,2.52,2.52,0,0,0,.52-.06,2.11,2.11,0,0,0,.54-.22,1.52,1.52,0,0,0,.41-.39,1,1,0,0,0,.17-.59Z"/><path class="cls-2" d="M65.34,139h1.47v9.18H65.34Z"/><path class="cls-2" d="M69.51,146a1.09,1.09,0,0,0,.48.9,1.89,1.89,0,0,0,1,.26l.47,0A2,2,0,0,0,72,147a.85.85,0,0,0,.37-.27.6.6,0,0,0,.14-.45.67.67,0,0,0-.21-.47,1.29,1.29,0,0,0-.49-.28,3.8,3.8,0,0,0-.69-.19l-.78-.17a6.07,6.07,0,0,1-.79-.22,2.61,2.61,0,0,1-.69-.34,1.66,1.66,0,0,1-.48-.57,1.74,1.74,0,0,1-.18-.84,1.52,1.52,0,0,1,.26-.9,2.15,2.15,0,0,1,.67-.6,2.9,2.9,0,0,1,.9-.31,5.34,5.34,0,0,1,.95-.09,4.46,4.46,0,0,1,1,.11,2.58,2.58,0,0,1,.85.35,2,2,0,0,1,.63.64,2.27,2.27,0,0,1,.32.95H72.21a.9.9,0,0,0-.49-.71,2,2,0,0,0-.86-.18l-.37,0a1.8,1.8,0,0,0-.4.1,1,1,0,0,0-.31.2.48.48,0,0,0-.13.36.59.59,0,0,0,.18.44,1.52,1.52,0,0,0,.49.27A3.8,3.8,0,0,0,71,144l.8.17a6.94,6.94,0,0,1,.78.22,2.47,2.47,0,0,1,.69.34,1.66,1.66,0,0,1,.49.56,1.68,1.68,0,0,1,.19.82,1.78,1.78,0,0,1-.27,1,2.13,2.13,0,0,1-.7.67,3.09,3.09,0,0,1-1,.37,4.68,4.68,0,0,1-1,.12,4.75,4.75,0,0,1-1.17-.14,3.06,3.06,0,0,1-.93-.43,2.21,2.21,0,0,1-.61-.72,2.34,2.34,0,0,1-.24-1Z"/></svg>